G04 Layer_Color=65535*
%FSLAX42Y42*%
%MOMM*%
G71*
G01*
G75*
%ADD30C,0.20*%
%ADD31C,0.25*%
%ADD45C,0.10*%
%ADD46C,0.17*%
%ADD47C,0.25*%
%ADD48C,0.00*%
%ADD49C,0.13*%
%ADD50C,0.20*%
%ADD51C,0.15*%
D30*
X11428Y7596D02*
G03*
X11428Y7596I-10J0D01*
G01*
X11925Y6212D02*
G03*
X11925Y6212I-7J0D01*
G01*
X11745Y7897D02*
Y7938D01*
X11675Y7897D02*
Y7938D01*
X10349Y5918D02*
Y6426D01*
X8063Y5918D02*
Y6426D01*
X10349D01*
X8063Y5918D02*
X10349D01*
X8032Y7610D02*
X8072D01*
X8032Y7680D02*
X8072D01*
X8032Y7482D02*
X8072D01*
X8032Y7553D02*
X8072D01*
X11807Y7897D02*
Y7938D01*
X11878Y7897D02*
Y7938D01*
X8032Y6943D02*
X8072D01*
X8032Y7012D02*
X8072D01*
X8032Y7738D02*
X8072D01*
X8032Y7808D02*
X8072D01*
X8112Y8093D02*
X8153D01*
X8112Y8022D02*
X8153D01*
X8112Y8207D02*
X8153D01*
X8112Y8138D02*
X8153Y8138D01*
X11235Y7425D02*
Y7465D01*
X11305Y7425D02*
Y7465D01*
X11547Y6960D02*
X11588D01*
X11547Y7030D02*
X11588D01*
X8032Y7180D02*
X8073D01*
X8032Y7110D02*
X8072D01*
X11403Y7043D02*
Y7082D01*
X11332Y7043D02*
Y7082D01*
X11922Y7820D02*
Y7860D01*
X11993Y7820D02*
Y7860D01*
X8032Y7280D02*
X8072D01*
X8032Y7350D02*
X8072D01*
X11275Y7818D02*
Y7857D01*
X11345Y7818D02*
Y7857D01*
X11397Y7897D02*
Y7938D01*
X11468Y7897D02*
Y7938D01*
X11532Y7897D02*
Y7938D01*
X11603Y7897D02*
Y7938D01*
X10473Y7926D02*
X10727D01*
X10473D02*
Y8434D01*
X10727D01*
Y7926D02*
Y8434D01*
X10090Y7497D02*
X10090Y7282D01*
X10230D02*
Y7497D01*
X10090D02*
X10230D01*
X10090Y7282D02*
X10230D01*
X10170Y7145D02*
X10210D01*
X10170Y7215D02*
X10210D01*
X9945Y7190D02*
X9945Y7150D01*
X9875Y7150D02*
Y7190D01*
X9805Y7150D02*
Y7190D01*
X9735Y7150D02*
Y7190D01*
X10505Y7625D02*
X10815D01*
X10505Y7575D02*
X10815D01*
Y7625D01*
X10505Y7575D02*
Y7625D01*
X10810Y7105D02*
X10850Y7105D01*
X10810Y7175D02*
X10850Y7175D01*
X10935Y7630D02*
Y7670D01*
X10865Y7670D02*
X10865Y7630D01*
X11075Y6790D02*
X11075Y6750D01*
X11005Y6750D02*
Y6790D01*
X10810Y7255D02*
X10850Y7255D01*
X10810Y7325D02*
X10850Y7325D01*
X10315Y7620D02*
Y7660D01*
X10245Y7620D02*
X10245Y7660D01*
X10455Y7620D02*
Y7660D01*
X10385Y7620D02*
Y7660D01*
X9695Y7430D02*
Y7470D01*
X9765Y7430D02*
Y7470D01*
X9725Y7930D02*
Y7970D01*
X9795Y7930D02*
Y7970D01*
X9815Y7430D02*
Y7470D01*
X9885Y7430D02*
Y7470D01*
X9970Y7725D02*
X10010D01*
X9970Y7655D02*
X10010D01*
X9970Y7845D02*
X10010D01*
X9970Y7775D02*
X10010D01*
X7543Y7057D02*
X7797D01*
X7797Y6295D02*
X7797Y7057D01*
X7543Y6295D02*
X7797D01*
X7543Y7057D02*
X7543Y6295D01*
X11905Y6790D02*
Y6830D01*
X11835Y6790D02*
Y6830D01*
X12055Y6790D02*
Y6830D01*
X11985Y6790D02*
Y6830D01*
X10960Y6345D02*
X11000Y6345D01*
X10960Y6275D02*
X11000D01*
X10960Y6195D02*
X11000D01*
X10960Y6125D02*
X11000Y6125D01*
X12185Y6350D02*
Y6390D01*
X12255Y6350D02*
Y6390D01*
X11995Y6350D02*
Y6390D01*
X12065Y6350D02*
Y6390D01*
D31*
X11647Y8180D02*
G03*
X11647Y8180I-6J0D01*
G01*
X11108Y7097D02*
X11082Y7122D01*
X11032D01*
X11006Y7097D01*
Y6995D01*
X11032Y6970D01*
X11082D01*
X11108Y6995D01*
X11158Y7097D02*
X11184Y7122D01*
X11235D01*
X11260Y7097D01*
Y7072D01*
X11235Y7046D01*
X11209D01*
X11235D01*
X11260Y7021D01*
Y6995D01*
X11235Y6970D01*
X11184D01*
X11158Y6995D01*
X11311Y6970D02*
X11362D01*
X11336D01*
Y7122D01*
X11311Y7097D01*
X10831Y7403D02*
X10806Y7429D01*
X10755D01*
X10729Y7403D01*
Y7302D01*
X10755Y7276D01*
X10806D01*
X10831Y7302D01*
X10882Y7403D02*
X10907Y7429D01*
X10958D01*
X10983Y7403D01*
Y7378D01*
X10958Y7352D01*
X10933D01*
X10958D01*
X10983Y7327D01*
Y7302D01*
X10958Y7276D01*
X10907D01*
X10882Y7302D01*
X11136Y7276D02*
X11034D01*
X11136Y7378D01*
Y7403D01*
X11110Y7429D01*
X11060D01*
X11034Y7403D01*
X10966Y7979D02*
X10941Y8004D01*
X10890D01*
X10865Y7979D01*
Y7877D01*
X10890Y7852D01*
X10941D01*
X10966Y7877D01*
X11017Y7979D02*
X11043Y8004D01*
X11093D01*
X11119Y7979D01*
Y7954D01*
X11093Y7928D01*
X11068D01*
X11093D01*
X11119Y7903D01*
Y7877D01*
X11093Y7852D01*
X11043D01*
X11017Y7877D01*
X11170Y7979D02*
X11195Y8004D01*
X11246D01*
X11271Y7979D01*
Y7954D01*
X11246Y7928D01*
X11220D01*
X11246D01*
X11271Y7903D01*
Y7877D01*
X11246Y7852D01*
X11195D01*
X11170Y7877D01*
X10193Y7442D02*
X10168Y7468D01*
X10117D01*
X10091Y7442D01*
Y7341D01*
X10117Y7316D01*
X10168D01*
X10193Y7341D01*
X10244Y7442D02*
X10269Y7468D01*
X10320D01*
X10345Y7442D01*
Y7417D01*
X10320Y7392D01*
X10295D01*
X10320D01*
X10345Y7366D01*
Y7341D01*
X10320Y7316D01*
X10269D01*
X10244Y7341D01*
X10472Y7316D02*
Y7468D01*
X10396Y7392D01*
X10498D01*
X9976Y7499D02*
X9951Y7524D01*
X9900D01*
X9874Y7499D01*
Y7397D01*
X9900Y7372D01*
X9951D01*
X9976Y7397D01*
X10027Y7499D02*
X10052Y7524D01*
X10103D01*
X10128Y7499D01*
Y7473D01*
X10103Y7448D01*
X10078D01*
X10103D01*
X10128Y7423D01*
Y7397D01*
X10103Y7372D01*
X10052D01*
X10027Y7397D01*
X10281Y7524D02*
X10179D01*
Y7448D01*
X10230Y7473D01*
X10255D01*
X10281Y7448D01*
Y7397D01*
X10255Y7372D01*
X10205D01*
X10179Y7397D01*
X9837Y7499D02*
X9812Y7524D01*
X9761D01*
X9736Y7499D01*
Y7397D01*
X9761Y7372D01*
X9812D01*
X9837Y7397D01*
X9888Y7499D02*
X9913Y7524D01*
X9964D01*
X9990Y7499D01*
Y7473D01*
X9964Y7448D01*
X9939D01*
X9964D01*
X9990Y7423D01*
Y7397D01*
X9964Y7372D01*
X9913D01*
X9888Y7397D01*
X10142Y7524D02*
X10091Y7499D01*
X10040Y7448D01*
Y7397D01*
X10066Y7372D01*
X10117D01*
X10142Y7397D01*
Y7423D01*
X10117Y7448D01*
X10040D01*
X10480Y8031D02*
Y7904D01*
X10505Y7878D01*
X10556D01*
X10581Y7904D01*
Y8031D01*
X10632Y8005D02*
X10658Y8031D01*
X10708D01*
X10734Y8005D01*
Y7980D01*
X10708Y7955D01*
X10683D01*
X10708D01*
X10734Y7929D01*
Y7904D01*
X10708Y7878D01*
X10658D01*
X10632Y7904D01*
X10017Y7739D02*
Y7612D01*
X10042Y7586D01*
X10093D01*
X10119Y7612D01*
Y7739D01*
X10246Y7586D02*
Y7739D01*
X10169Y7663D01*
X10271D01*
X10550Y8092D02*
Y8194D01*
X10601Y8244D01*
X10651Y8194D01*
Y8092D01*
Y8168D01*
X10550D01*
X10804Y8219D02*
X10778Y8244D01*
X10728D01*
X10702Y8219D01*
Y8117D01*
X10728Y8092D01*
X10778D01*
X10804Y8117D01*
Y8168D01*
X10753D01*
X10855Y8092D02*
Y8244D01*
X10956Y8092D01*
Y8244D01*
X11007D02*
Y8092D01*
X11083D01*
X11109Y8117D01*
Y8219D01*
X11083Y8244D01*
X11007D01*
X11159Y8067D02*
X11261D01*
X11413Y8244D02*
X11362D01*
X11388D01*
Y8117D01*
X11362Y8092D01*
X11337D01*
X11312Y8117D01*
X11464Y8194D02*
Y8117D01*
X11489Y8092D01*
X11566D01*
Y8194D01*
X11616Y8092D02*
Y8194D01*
X11642D01*
X11667Y8168D01*
Y8092D01*
Y8168D01*
X11693Y8194D01*
X11718Y8168D01*
Y8092D01*
X11769Y8041D02*
Y8194D01*
X11845D01*
X11870Y8168D01*
Y8117D01*
X11845Y8092D01*
X11769D01*
X11997D02*
X11946D01*
X11921Y8117D01*
Y8168D01*
X11946Y8194D01*
X11997D01*
X12023Y8168D01*
Y8143D01*
X11921D01*
X12073Y8194D02*
Y8092D01*
Y8143D01*
X12099Y8168D01*
X12124Y8194D01*
X12150D01*
X9918Y7778D02*
X9893Y7803D01*
X9842D01*
X9816Y7778D01*
Y7676D01*
X9842Y7651D01*
X9893D01*
X9918Y7676D01*
X10070Y7803D02*
X9969D01*
Y7727D01*
X10020Y7753D01*
X10045D01*
X10070Y7727D01*
Y7676D01*
X10045Y7651D01*
X9994D01*
X9969Y7676D01*
X9798Y7779D02*
X9773Y7804D01*
X9722D01*
X9697Y7779D01*
Y7677D01*
X9722Y7652D01*
X9773D01*
X9798Y7677D01*
X9951Y7804D02*
X9900Y7779D01*
X9849Y7728D01*
Y7677D01*
X9874Y7652D01*
X9925D01*
X9951Y7677D01*
Y7703D01*
X9925Y7728D01*
X9849D01*
X10832Y7554D02*
X10806Y7579D01*
X10756D01*
X10730Y7554D01*
Y7452D01*
X10756Y7427D01*
X10806D01*
X10832Y7452D01*
X10883Y7579D02*
X10984D01*
Y7554D01*
X10883Y7452D01*
Y7427D01*
X10347Y7967D02*
X10321Y7993D01*
X10270D01*
X10245Y7967D01*
Y7866D01*
X10270Y7840D01*
X10321D01*
X10347Y7866D01*
X10397Y7967D02*
X10423Y7993D01*
X10473D01*
X10499Y7967D01*
Y7942D01*
X10473Y7916D01*
X10499Y7891D01*
Y7866D01*
X10473Y7840D01*
X10423D01*
X10397Y7866D01*
Y7891D01*
X10423Y7916D01*
X10397Y7942D01*
Y7967D01*
X10423Y7916D02*
X10473D01*
X9992Y8074D02*
X9967Y8099D01*
X9916D01*
X9890Y8074D01*
Y7972D01*
X9916Y7947D01*
X9967D01*
X9992Y7972D01*
X10144Y7947D02*
X10043D01*
X10144Y8049D01*
Y8074D01*
X10119Y8099D01*
X10068D01*
X10043Y8074D01*
X10297Y7947D02*
X10195D01*
X10297Y8049D01*
Y8074D01*
X10271Y8099D01*
X10221D01*
X10195Y8074D01*
X9993Y7954D02*
X9967Y7980D01*
X9916D01*
X9891Y7954D01*
Y7853D01*
X9916Y7827D01*
X9967D01*
X9993Y7853D01*
X10145Y7827D02*
X10043D01*
X10145Y7929D01*
Y7954D01*
X10120Y7980D01*
X10069D01*
X10043Y7954D01*
X10196D02*
X10221Y7980D01*
X10272D01*
X10297Y7954D01*
Y7929D01*
X10272Y7903D01*
X10247D01*
X10272D01*
X10297Y7878D01*
Y7853D01*
X10272Y7827D01*
X10221D01*
X10196Y7853D01*
X10487Y7968D02*
X10461Y7993D01*
X10410D01*
X10385Y7968D01*
Y7866D01*
X10410Y7841D01*
X10461D01*
X10487Y7866D01*
X10639Y7841D02*
X10537D01*
X10639Y7942D01*
Y7968D01*
X10614Y7993D01*
X10563D01*
X10537Y7968D01*
X10766Y7841D02*
Y7993D01*
X10690Y7917D01*
X10791D01*
X9827Y8279D02*
X9802Y8304D01*
X9751D01*
X9726Y8279D01*
Y8177D01*
X9751Y8152D01*
X9802D01*
X9827Y8177D01*
X9980Y8152D02*
X9878D01*
X9980Y8254D01*
Y8279D01*
X9954Y8304D01*
X9903D01*
X9878Y8279D01*
X10132Y8304D02*
X10030D01*
Y8228D01*
X10081Y8254D01*
X10107D01*
X10132Y8228D01*
Y8177D01*
X10107Y8152D01*
X10056D01*
X10030Y8177D01*
X10688Y7274D02*
Y7147D01*
X10713Y7122D01*
X10764D01*
X10789Y7147D01*
Y7274D01*
X10941Y7122D02*
X10840D01*
X10941Y7223D01*
Y7248D01*
X10916Y7274D01*
X10865D01*
X10840Y7248D01*
X12363Y6272D02*
X12338Y6246D01*
Y6195D01*
X12363Y6170D01*
X12465D01*
X12490Y6195D01*
Y6246D01*
X12465Y6272D01*
X12363Y6322D02*
X12338Y6348D01*
Y6399D01*
X12363Y6424D01*
X12388D01*
X12414Y6399D01*
Y6373D01*
Y6399D01*
X12439Y6424D01*
X12465D01*
X12490Y6399D01*
Y6348D01*
X12465Y6322D01*
X12338Y6475D02*
Y6576D01*
X12363D01*
X12465Y6475D01*
X12490D01*
X11783Y6282D02*
X11758Y6256D01*
Y6205D01*
X11783Y6180D01*
X11885D01*
X11910Y6205D01*
Y6256D01*
X11885Y6282D01*
X11783Y6332D02*
X11758Y6358D01*
Y6409D01*
X11783Y6434D01*
X11808D01*
X11834Y6409D01*
Y6383D01*
Y6409D01*
X11859Y6434D01*
X11885D01*
X11910Y6409D01*
Y6358D01*
X11885Y6332D01*
X11783Y6485D02*
X11758Y6510D01*
Y6561D01*
X11783Y6586D01*
X11808D01*
X11834Y6561D01*
X11859Y6586D01*
X11885D01*
X11910Y6561D01*
Y6510D01*
X11885Y6485D01*
X11859D01*
X11834Y6510D01*
X11808Y6485D01*
X11783D01*
X11834Y6510D02*
Y6561D01*
X11936Y7138D02*
X11911Y7164D01*
X11860D01*
X11835Y7138D01*
Y7037D01*
X11860Y7011D01*
X11911D01*
X11936Y7037D01*
X11987Y7138D02*
X12013Y7164D01*
X12063D01*
X12089Y7138D01*
Y7113D01*
X12063Y7088D01*
X12038D01*
X12063D01*
X12089Y7062D01*
Y7037D01*
X12063Y7011D01*
X12013D01*
X11987Y7037D01*
X12140D02*
X12165Y7011D01*
X12216D01*
X12241Y7037D01*
Y7138D01*
X12216Y7164D01*
X12165D01*
X12140Y7138D01*
Y7113D01*
X12165Y7088D01*
X12241D01*
X12086Y7138D02*
X12061Y7164D01*
X12010D01*
X11985Y7138D01*
Y7037D01*
X12010Y7011D01*
X12061D01*
X12086Y7037D01*
X12213Y7011D02*
Y7164D01*
X12137Y7088D01*
X12239D01*
X12289Y7138D02*
X12315Y7164D01*
X12366D01*
X12391Y7138D01*
Y7037D01*
X12366Y7011D01*
X12315D01*
X12289Y7037D01*
Y7138D01*
X10880Y6447D02*
Y6599D01*
X10957D01*
X10982Y6574D01*
Y6523D01*
X10957Y6498D01*
X10880D01*
X10931D02*
X10982Y6447D01*
X11033D02*
X11084D01*
X11058D01*
Y6599D01*
X11033Y6574D01*
X11160Y6472D02*
X11185Y6447D01*
X11236D01*
X11261Y6472D01*
Y6574D01*
X11236Y6599D01*
X11185D01*
X11160Y6574D01*
Y6549D01*
X11185Y6523D01*
X11261D01*
X10880Y6297D02*
Y6449D01*
X10957D01*
X10982Y6424D01*
Y6373D01*
X10957Y6348D01*
X10880D01*
X10931D02*
X10982Y6297D01*
X11134D02*
X11033D01*
X11134Y6399D01*
Y6424D01*
X11109Y6449D01*
X11058D01*
X11033Y6424D01*
X11185D02*
X11211Y6449D01*
X11261D01*
X11287Y6424D01*
Y6322D01*
X11261Y6297D01*
X11211D01*
X11185Y6322D01*
Y6424D01*
X11280Y6914D02*
Y6787D01*
X11305Y6761D01*
X11356D01*
X11382Y6787D01*
Y6914D01*
X11534D02*
X11432D01*
Y6837D01*
X11483Y6863D01*
X11509D01*
X11534Y6837D01*
Y6787D01*
X11509Y6761D01*
X11458D01*
X11432Y6787D01*
D45*
X8635Y8780D02*
G03*
X8385Y8780I-125J-83D01*
G01*
X9540D02*
G03*
X9290Y8780I-125J-83D01*
G01*
X10440D02*
G03*
X10190Y8780I-125J-83D01*
G01*
X8080Y8780D02*
X8385D01*
X8955Y8412D02*
Y8780D01*
X8635Y8780D02*
X8952D01*
X8080Y8415D02*
Y8780D01*
Y8415D02*
X8083Y8412D01*
X8955Y8412D01*
X8985Y8780D02*
X9290D01*
X9860Y8412D02*
Y8780D01*
X9540Y8780D02*
X9857D01*
X8985Y8415D02*
Y8780D01*
Y8415D02*
X8988Y8412D01*
X9860D01*
X9885Y8780D02*
X10190D01*
X10760Y8412D02*
Y8780D01*
X10440Y8780D02*
X10757D01*
X9885Y8415D02*
Y8780D01*
Y8415D02*
X9888Y8412D01*
X10760D01*
X7450Y7000D02*
X7500D01*
Y6975D01*
X7492Y6967D01*
X7475D01*
X7467Y6975D01*
Y7000D01*
X7450Y6917D02*
Y6950D01*
X7483Y6917D01*
X7492D01*
X7500Y6925D01*
Y6942D01*
X7492Y6950D01*
X10820Y8060D02*
X10770D01*
Y8035D01*
X10778Y8027D01*
X10787D01*
X10795Y8035D01*
Y8060D01*
Y8035D01*
X10803Y8027D01*
X10812D01*
X10820Y8035D01*
Y8060D01*
Y8010D02*
Y7977D01*
Y7993D01*
X10770D01*
Y7960D02*
Y7943D01*
Y7952D01*
X10820D01*
X10812Y7960D01*
X7846Y7623D02*
X7838Y7615D01*
Y7598D01*
X7846Y7590D01*
X7879D01*
X7888Y7598D01*
Y7615D01*
X7879Y7623D01*
X7888Y7640D02*
Y7657D01*
Y7648D01*
X7838D01*
X7846Y7640D01*
X7888Y7707D02*
X7838D01*
X7863Y7682D01*
Y7715D01*
X7846Y7456D02*
X7838Y7447D01*
Y7431D01*
X7846Y7422D01*
X7879D01*
X7888Y7431D01*
Y7447D01*
X7879Y7456D01*
X7888Y7472D02*
Y7489D01*
Y7481D01*
X7838D01*
X7846Y7472D01*
X7838Y7547D02*
Y7514D01*
X7863D01*
X7854Y7531D01*
Y7539D01*
X7863Y7547D01*
X7879D01*
X7888Y7539D01*
Y7522D01*
X7879Y7514D01*
X11846Y8117D02*
X11837Y8125D01*
X11821D01*
X11812Y8117D01*
Y8083D01*
X11821Y8075D01*
X11837D01*
X11846Y8083D01*
X11862Y8075D02*
X11879D01*
X11871D01*
Y8125D01*
X11862Y8117D01*
X11937Y8125D02*
X11921Y8117D01*
X11904Y8100D01*
Y8083D01*
X11912Y8075D01*
X11929D01*
X11937Y8083D01*
Y8092D01*
X11929Y8100D01*
X11904D01*
X7861Y6948D02*
X7853Y6940D01*
Y6923D01*
X7861Y6915D01*
X7894D01*
X7903Y6923D01*
Y6940D01*
X7894Y6948D01*
X7903Y6965D02*
Y6982D01*
Y6973D01*
X7853D01*
X7861Y6965D01*
X7853Y7007D02*
Y7040D01*
X7861D01*
X7894Y7007D01*
X7903D01*
X7846Y7786D02*
X7838Y7777D01*
Y7761D01*
X7846Y7753D01*
X7879D01*
X7888Y7761D01*
Y7777D01*
X7879Y7786D01*
X7888Y7802D02*
Y7819D01*
Y7811D01*
X7838D01*
X7846Y7802D01*
Y7844D02*
X7838Y7852D01*
Y7869D01*
X7846Y7877D01*
X7854D01*
X7863Y7869D01*
X7871Y7877D01*
X7879D01*
X7888Y7869D01*
Y7852D01*
X7879Y7844D01*
X7871D01*
X7863Y7852D01*
X7854Y7844D01*
X7846D01*
X7863Y7852D02*
Y7869D01*
X8098Y7972D02*
X8090Y7980D01*
X8073D01*
X8065Y7972D01*
Y7938D01*
X8073Y7930D01*
X8090D01*
X8098Y7938D01*
X8115Y7930D02*
X8132D01*
X8123D01*
Y7980D01*
X8115Y7972D01*
X8157Y7938D02*
X8165Y7930D01*
X8182D01*
X8190Y7938D01*
Y7972D01*
X8182Y7980D01*
X8165D01*
X8157Y7972D01*
Y7963D01*
X8165Y7955D01*
X8190D01*
X8106Y8302D02*
X8097Y8310D01*
X8081D01*
X8072Y8302D01*
Y8268D01*
X8081Y8260D01*
X8097D01*
X8106Y8268D01*
X8156Y8260D02*
X8122D01*
X8156Y8293D01*
Y8302D01*
X8147Y8310D01*
X8131D01*
X8122Y8302D01*
X8172D02*
X8181Y8310D01*
X8197D01*
X8206Y8302D01*
Y8268D01*
X8197Y8260D01*
X8181D01*
X8172Y8268D01*
Y8302D01*
X11168Y7428D02*
X11160Y7420D01*
Y7403D01*
X11168Y7395D01*
X11202D01*
X11210Y7403D01*
Y7420D01*
X11202Y7428D01*
X11210Y7478D02*
Y7445D01*
X11177Y7478D01*
X11168D01*
X11160Y7470D01*
Y7453D01*
X11168Y7445D01*
X11210Y7495D02*
Y7512D01*
Y7503D01*
X11160D01*
X11168Y7495D01*
X11378Y6745D02*
Y6695D01*
Y6720D01*
X11411D01*
Y6745D01*
Y6695D01*
X11427Y6745D02*
Y6695D01*
X11461D01*
X11477D02*
X11494D01*
X11486D01*
Y6745D01*
X11477Y6737D01*
X11710Y7165D02*
Y7115D01*
Y7140D01*
X11743D01*
Y7165D01*
Y7115D01*
X11760Y7165D02*
Y7115D01*
X11793D01*
X11843D02*
X11810D01*
X11843Y7148D01*
Y7157D01*
X11835Y7165D01*
X11818D01*
X11810Y7157D01*
X8088Y6480D02*
Y6530D01*
X8112D01*
X8121Y6522D01*
Y6505D01*
X8112Y6497D01*
X8088D01*
X8137Y6480D02*
X8154D01*
X8146D01*
Y6530D01*
X8137Y6522D01*
X11725Y6970D02*
Y7020D01*
X11750D01*
X11758Y7012D01*
Y6995D01*
X11750Y6987D01*
X11725D01*
X11742D02*
X11758Y6970D01*
X11775D02*
X11792D01*
X11783D01*
Y7020D01*
X11775Y7012D01*
X7900Y7107D02*
X7850D01*
Y7132D01*
X7858Y7141D01*
X7875D01*
X7883Y7132D01*
Y7107D01*
Y7124D02*
X7900Y7141D01*
Y7191D02*
Y7157D01*
X7867Y7191D01*
X7858D01*
X7850Y7182D01*
Y7166D01*
X7858Y7157D01*
X11285Y7018D02*
X11235D01*
Y7042D01*
X11243Y7051D01*
X11260D01*
X11268Y7042D01*
Y7018D01*
Y7034D02*
X11285Y7051D01*
X11243Y7067D02*
X11235Y7076D01*
Y7092D01*
X11243Y7101D01*
X11252D01*
X11260Y7092D01*
Y7084D01*
Y7092D01*
X11268Y7101D01*
X11277D01*
X11285Y7092D01*
Y7076D01*
X11277Y7067D01*
X11260Y7993D02*
Y8042D01*
X11285D01*
X11293Y8034D01*
Y8017D01*
X11285Y8009D01*
X11260D01*
X11277D02*
X11293Y7993D01*
X11335D02*
Y8042D01*
X11310Y8017D01*
X11343D01*
X11528Y8075D02*
Y8125D01*
X11552D01*
X11561Y8117D01*
Y8100D01*
X11552Y8092D01*
X11528D01*
X11544D02*
X11561Y8075D01*
X11611Y8125D02*
X11577D01*
Y8100D01*
X11594Y8108D01*
X11602D01*
X11611Y8100D01*
Y8083D01*
X11602Y8075D01*
X11586D01*
X11577Y8083D01*
X11680Y8072D02*
Y8122D01*
X11705D01*
X11713Y8114D01*
Y8097D01*
X11705Y8089D01*
X11680D01*
X11697D02*
X11713Y8072D01*
X11763Y8122D02*
X11747Y8114D01*
X11730Y8097D01*
Y8081D01*
X11738Y8072D01*
X11755D01*
X11763Y8081D01*
Y8089D01*
X11755Y8097D01*
X11730D01*
X11932Y7995D02*
Y8045D01*
X11957D01*
X11966Y8037D01*
Y8020D01*
X11957Y8012D01*
X11932D01*
X11949D02*
X11966Y7995D01*
X11982Y8045D02*
X12016D01*
Y8037D01*
X11982Y8003D01*
Y7995D01*
X11382Y8070D02*
Y8120D01*
X11407D01*
X11416Y8112D01*
Y8095D01*
X11407Y8087D01*
X11382D01*
X11399D02*
X11416Y8070D01*
X11432Y8112D02*
X11441Y8120D01*
X11457D01*
X11466Y8112D01*
Y8103D01*
X11457Y8095D01*
X11466Y8087D01*
Y8078D01*
X11457Y8070D01*
X11441D01*
X11432Y8078D01*
Y8087D01*
X11441Y8095D01*
X11432Y8103D01*
Y8112D01*
X11441Y8095D02*
X11457D01*
X8513Y8744D02*
X8505Y8752D01*
X8488D01*
X8480Y8744D01*
Y8736D01*
X8488Y8727D01*
X8505D01*
X8513Y8719D01*
Y8711D01*
X8505Y8703D01*
X8488D01*
X8480Y8711D01*
X8530Y8703D02*
X8547D01*
X8538D01*
Y8752D01*
X8530Y8744D01*
X11358Y7353D02*
X11399D01*
X11407Y7361D01*
Y7377D01*
X11399Y7386D01*
X11358D01*
X11407Y7402D02*
Y7419D01*
Y7411D01*
X11358D01*
X11366Y7402D01*
Y7444D02*
X11358Y7452D01*
Y7469D01*
X11366Y7477D01*
X11399D01*
X11407Y7469D01*
Y7452D01*
X11399Y7444D01*
X11366D01*
X8660Y7200D02*
Y7233D01*
X8677Y7250D01*
X8693Y7233D01*
Y7200D01*
Y7225D01*
X8660D01*
X8710Y7250D02*
Y7200D01*
X8735D01*
X8743Y7208D01*
Y7242D01*
X8735Y7250D01*
X8710D01*
X8793Y7242D02*
X8785Y7250D01*
X8768D01*
X8760Y7242D01*
Y7233D01*
X8768Y7225D01*
X8785D01*
X8793Y7217D01*
Y7208D01*
X8785Y7200D01*
X8768D01*
X8760Y7208D01*
X8810Y7200D02*
X8827D01*
X8818D01*
Y7250D01*
X8810Y7242D01*
X8885Y7200D02*
X8852D01*
X8885Y7233D01*
Y7242D01*
X8877Y7250D01*
X8860D01*
X8852Y7242D01*
X8902Y7208D02*
X8910Y7200D01*
X8927D01*
X8935Y7208D01*
Y7242D01*
X8927Y7250D01*
X8910D01*
X8902Y7242D01*
Y7233D01*
X8910Y7225D01*
X8935D01*
X8952Y7242D02*
X8960Y7250D01*
X8977D01*
X8985Y7242D01*
Y7233D01*
X8977Y7225D01*
X8985Y7217D01*
Y7208D01*
X8977Y7200D01*
X8960D01*
X8952Y7208D01*
Y7217D01*
X8960Y7225D01*
X8952Y7233D01*
Y7242D01*
X8960Y7225D02*
X8977D01*
X8518Y8057D02*
X8534D01*
X8526D01*
Y8007D01*
X8518D01*
X8534D01*
X8592Y8049D02*
X8584Y8057D01*
X8567D01*
X8559Y8049D01*
Y8016D01*
X8567Y8007D01*
X8584D01*
X8592Y8016D01*
X8609Y8007D02*
X8626D01*
X8617D01*
Y8057D01*
X8609Y8049D01*
X7853Y7303D02*
X7845Y7295D01*
Y7278D01*
X7853Y7270D01*
X7887D01*
X7895Y7278D01*
Y7295D01*
X7887Y7303D01*
Y7320D02*
X7895Y7328D01*
Y7345D01*
X7887Y7353D01*
X7853D01*
X7845Y7345D01*
Y7328D01*
X7853Y7320D01*
X7862D01*
X7870Y7328D01*
Y7353D01*
X11130Y8270D02*
Y8320D01*
X11155D01*
X11163Y8312D01*
Y8295D01*
X11155Y8287D01*
X11130D01*
X11205Y8270D02*
Y8320D01*
X11180Y8295D01*
X11213D01*
X9393Y8752D02*
X9385Y8760D01*
X9368D01*
X9360Y8752D01*
Y8743D01*
X9368Y8735D01*
X9385D01*
X9393Y8727D01*
Y8718D01*
X9385Y8710D01*
X9368D01*
X9360Y8718D01*
X9443Y8710D02*
X9410D01*
X9443Y8743D01*
Y8752D01*
X9435Y8760D01*
X9418D01*
X9410Y8752D01*
X10303Y8742D02*
X10295Y8750D01*
X10278D01*
X10270Y8742D01*
Y8733D01*
X10278Y8725D01*
X10295D01*
X10303Y8717D01*
Y8708D01*
X10295Y8700D01*
X10278D01*
X10270Y8708D01*
X10320Y8742D02*
X10328Y8750D01*
X10345D01*
X10353Y8742D01*
Y8733D01*
X10345Y8725D01*
X10337D01*
X10345D01*
X10353Y8717D01*
Y8708D01*
X10345Y8700D01*
X10328D01*
X10320Y8708D01*
X7981Y6288D02*
X7947D01*
X7981Y6321D01*
Y6329D01*
X7972Y6337D01*
X7956D01*
X7947Y6329D01*
X7962Y5988D02*
X7979D01*
X7971D01*
Y6037D01*
X7962Y6029D01*
X10425Y5994D02*
X10442D01*
X10434D01*
Y6044D01*
X10425Y6036D01*
X10467Y6044D02*
X10500D01*
Y6036D01*
X10467Y6003D01*
Y5994D01*
X10425Y6248D02*
X10442D01*
X10434D01*
Y6298D01*
X10425Y6290D01*
X10467D02*
X10475Y6298D01*
X10492D01*
X10500Y6290D01*
Y6282D01*
X10492Y6273D01*
X10500Y6265D01*
Y6257D01*
X10492Y6248D01*
X10475D01*
X10467Y6257D01*
Y6265D01*
X10475Y6273D01*
X10467Y6282D01*
Y6290D01*
X10475Y6273D02*
X10492D01*
X10800Y8332D02*
Y8299D01*
X10817Y8316D02*
X10783D01*
D46*
X8568Y7160D02*
G03*
X8568Y7160I-30J0D01*
G01*
D47*
X10282Y7250D02*
G03*
X10282Y7250I-12J0D01*
G01*
X10493Y7480D02*
G03*
X10493Y7480I-12J0D01*
G01*
D48*
X10970Y6880D02*
G03*
X10970Y6820I0J-30D01*
G01*
D49*
X11488Y7605D02*
Y7650D01*
Y7340D02*
X11488Y7385D01*
X11797Y7605D02*
Y7650D01*
Y7340D02*
Y7385D01*
X11488Y7650D02*
X11532D01*
X11488Y7340D02*
X11532D01*
X11753Y7650D02*
X11797D01*
X11753Y7340D02*
X11797D01*
X11084Y8646D02*
Y8716D01*
Y8626D02*
Y8646D01*
X11084Y8216D02*
Y8401D01*
X11829Y8646D02*
Y8726D01*
X11829Y8626D02*
X11829Y8646D01*
X11824Y8216D02*
X11824Y8401D01*
X11084Y8216D02*
X11279D01*
X11084Y8716D02*
X11824D01*
X11854Y8776D01*
X11054Y8776D02*
X11084Y8716D01*
X11619Y8216D02*
X11824D01*
X11084Y8647D02*
X11824D01*
X11764Y8716D02*
Y8776D01*
X11144D02*
X11764D01*
X11144Y8716D02*
Y8776D01*
X11765Y6625D02*
X11825D01*
Y6570D02*
Y6625D01*
X11315D02*
X11370D01*
X11315Y6580D02*
Y6625D01*
Y6115D02*
Y6175D01*
Y6115D02*
X11370D01*
X11825D02*
Y6175D01*
X11770Y6115D02*
X11825D01*
D50*
X8478Y7100D02*
X9478D01*
Y8100D01*
X8478D02*
X9478D01*
X8478Y7100D02*
Y8100D01*
D51*
X10970Y6880D02*
X10970Y6891D01*
X10970Y6820D02*
Y6880D01*
Y6809D02*
Y6820D01*
M02*
