G04 Layer_Physical_Order=1*
G04 Layer_Color=255*
%FSLAX42Y42*%
%MOMM*%
G71*
G01*
G75*
%ADD10R,0.90X0.70*%
%ADD11R,0.80X0.90*%
%ADD12R,1.50X0.90*%
%ADD13R,1.00X1.30*%
%ADD14R,1.68X1.68*%
%ADD15R,0.82X0.26*%
%ADD16R,0.26X0.82*%
%ADD17R,1.00X0.25*%
%ADD18R,0.25X1.00*%
%ADD19R,0.70X0.90*%
%ADD20R,0.40X1.35*%
%ADD21R,1.80X1.90*%
%ADD22R,1.90X1.90*%
%ADD23R,0.90X0.40*%
%ADD24R,0.60X1.10*%
%ADD25R,0.56X1.27*%
%ADD26R,1.30X1.50*%
%ADD27R,3.25X3.25*%
%ADD28R,0.27X1.01*%
%ADD29R,1.01X0.27*%
%ADD30C,0.20*%
%ADD31C,0.25*%
%ADD32C,0.50*%
%ADD33O,1.00X0.75*%
%ADD34R,1.00X0.75*%
%ADD35C,1.52*%
%ADD36C,1.50*%
%ADD37R,1.50X1.50*%
%ADD38R,1.50X1.50*%
%ADD39C,0.60*%
D10*
X11710Y7993D02*
D03*
Y7843D02*
D03*
X11843D02*
D03*
Y7993D02*
D03*
X11270Y7370D02*
D03*
Y7520D02*
D03*
X11368Y7138D02*
D03*
Y6988D02*
D03*
X11957Y7765D02*
D03*
Y7915D02*
D03*
X11310Y7762D02*
D03*
Y7912D02*
D03*
X11432Y7843D02*
D03*
Y7993D02*
D03*
X11568Y7843D02*
D03*
Y7993D02*
D03*
X9910Y7245D02*
D03*
X9910Y7095D02*
D03*
X9770Y7245D02*
D03*
Y7095D02*
D03*
X10900Y7725D02*
D03*
Y7575D02*
D03*
X11040Y6845D02*
D03*
Y6695D02*
D03*
X10280Y7715D02*
D03*
Y7565D02*
D03*
X10420Y7715D02*
D03*
Y7565D02*
D03*
X9730Y7375D02*
D03*
Y7525D02*
D03*
X9760Y7875D02*
D03*
Y8025D02*
D03*
X9850Y7375D02*
D03*
Y7525D02*
D03*
X11870Y6885D02*
D03*
X11870Y6735D02*
D03*
X12020Y6885D02*
D03*
Y6735D02*
D03*
X12220Y6295D02*
D03*
X12220Y6490D02*
D03*
X12030Y6295D02*
D03*
X12030Y6490D02*
D03*
D11*
X11638Y7135D02*
D03*
X11497Y7135D02*
D03*
X11368Y6835D02*
D03*
X11507D02*
D03*
D12*
X8180Y8705D02*
D03*
X8855D02*
D03*
X9085D02*
D03*
X9760D02*
D03*
X9985D02*
D03*
X10660D02*
D03*
D13*
X8305Y8520D02*
D03*
X8730Y8520D02*
D03*
X9210Y8520D02*
D03*
X9635Y8520D02*
D03*
X10110Y8520D02*
D03*
X10535Y8520D02*
D03*
D14*
X11643Y7495D02*
D03*
D15*
X11788Y7570D02*
D03*
Y7520D02*
D03*
X11788Y7470D02*
D03*
X11788Y7420D02*
D03*
X11497Y7420D02*
D03*
Y7470D02*
D03*
Y7520D02*
D03*
X11497Y7570D02*
D03*
D16*
X11568Y7640D02*
D03*
X11618Y7640D02*
D03*
X11668Y7640D02*
D03*
X11718D02*
D03*
Y7350D02*
D03*
X11668Y7350D02*
D03*
X11618D02*
D03*
X11568Y7350D02*
D03*
D17*
X8407Y7225D02*
D03*
Y7275D02*
D03*
X8407Y7325D02*
D03*
Y7375D02*
D03*
X8407Y7425D02*
D03*
Y7475D02*
D03*
Y7525D02*
D03*
Y7575D02*
D03*
Y7625D02*
D03*
Y7675D02*
D03*
Y7725D02*
D03*
Y7775D02*
D03*
Y7825D02*
D03*
Y7875D02*
D03*
X8407Y7925D02*
D03*
Y7975D02*
D03*
X9547Y7975D02*
D03*
Y7925D02*
D03*
Y7875D02*
D03*
Y7825D02*
D03*
Y7775D02*
D03*
Y7725D02*
D03*
Y7675D02*
D03*
Y7625D02*
D03*
Y7575D02*
D03*
Y7525D02*
D03*
Y7475D02*
D03*
Y7425D02*
D03*
Y7375D02*
D03*
Y7325D02*
D03*
Y7275D02*
D03*
Y7225D02*
D03*
D18*
X8603Y8170D02*
D03*
X8653D02*
D03*
X8703D02*
D03*
X8753D02*
D03*
X8803D02*
D03*
X8853D02*
D03*
X8903D02*
D03*
X8953D02*
D03*
X9003D02*
D03*
X9053D02*
D03*
X9103D02*
D03*
X9153D02*
D03*
X9203D02*
D03*
X9253D02*
D03*
X9303D02*
D03*
X9353D02*
D03*
X9353Y7030D02*
D03*
X9303D02*
D03*
X9253D02*
D03*
X9203D02*
D03*
X9153Y7030D02*
D03*
X9103D02*
D03*
X9053D02*
D03*
X9003Y7030D02*
D03*
X8953D02*
D03*
X8903Y7030D02*
D03*
X8853D02*
D03*
X8803D02*
D03*
X8753Y7030D02*
D03*
X8703D02*
D03*
X8653Y7030D02*
D03*
X8603D02*
D03*
D19*
X8128Y7645D02*
D03*
X7978D02*
D03*
X8128Y7518D02*
D03*
X7978D02*
D03*
X8128Y6978D02*
D03*
X7978Y6978D02*
D03*
X8128Y7773D02*
D03*
X7978D02*
D03*
X8058Y8057D02*
D03*
X8207D02*
D03*
X8057Y8172D02*
D03*
X8207Y8172D02*
D03*
X11643Y6995D02*
D03*
X11493D02*
D03*
X7978Y7145D02*
D03*
X8128Y7145D02*
D03*
X8128Y7315D02*
D03*
X7978D02*
D03*
X10265Y7180D02*
D03*
X10115D02*
D03*
X10905Y7140D02*
D03*
X10755Y7140D02*
D03*
X10905Y7290D02*
D03*
X10755D02*
D03*
X9915Y7690D02*
D03*
X10065D02*
D03*
X9915Y7810D02*
D03*
X10065D02*
D03*
X10905Y6310D02*
D03*
X11055Y6310D02*
D03*
X10905Y6160D02*
D03*
X11055Y6160D02*
D03*
D20*
X11579Y8246D02*
D03*
X11514D02*
D03*
X11449D02*
D03*
X11384D02*
D03*
X11319D02*
D03*
D21*
X11854Y8514D02*
D03*
X11044D02*
D03*
D22*
X11569D02*
D03*
X11329D02*
D03*
D23*
X10050Y7325D02*
D03*
Y7455D02*
D03*
X10270D02*
D03*
Y7390D02*
D03*
Y7325D02*
D03*
D24*
X10565Y7720D02*
D03*
X10755D02*
D03*
Y7480D02*
D03*
X10660D02*
D03*
X10565D02*
D03*
D25*
X10914Y6728D02*
D03*
X10820D02*
D03*
X10726D02*
D03*
Y6972D02*
D03*
X10820D02*
D03*
X10914D02*
D03*
D26*
X10600Y7880D02*
D03*
X10900D02*
D03*
D27*
X11570Y6370D02*
D03*
D28*
X11720Y6134D02*
D03*
X11670D02*
D03*
X11620D02*
D03*
X11570D02*
D03*
X11520D02*
D03*
X11470D02*
D03*
X11420D02*
D03*
Y6606D02*
D03*
X11470D02*
D03*
X11520D02*
D03*
X11570D02*
D03*
X11620D02*
D03*
X11670D02*
D03*
X11720D02*
D03*
D29*
X11334Y6220D02*
D03*
Y6270D02*
D03*
Y6320D02*
D03*
Y6370D02*
D03*
Y6420D02*
D03*
Y6470D02*
D03*
Y6520D02*
D03*
X11806D02*
D03*
Y6470D02*
D03*
Y6420D02*
D03*
Y6370D02*
D03*
Y6320D02*
D03*
Y6270D02*
D03*
Y6220D02*
D03*
D30*
X9455Y7005D02*
Y7275D01*
Y7005D02*
X10090Y6370D01*
X9455Y7275D02*
X9547D01*
Y6974D02*
X10222Y6299D01*
X9547Y6974D02*
Y7225D01*
X10115Y7180D02*
Y7245D01*
X10140Y7270D01*
Y7390D01*
X11568Y6835D02*
Y7245D01*
X10090Y6177D02*
X10222Y6045D01*
X10090Y6177D02*
Y6370D01*
X10140Y7390D02*
X10270D01*
X10140D02*
Y7490D01*
X10215Y7565D01*
X10280D01*
D31*
X10933Y8307D02*
X11123Y8117D01*
Y7587D02*
Y8117D01*
Y7587D02*
X11190Y7520D01*
X8653Y8035D02*
X8675Y8012D01*
X8753Y7925D02*
Y8170D01*
X10600Y6438D02*
Y6510D01*
X10480Y6630D02*
X10600Y6510D01*
X10962Y6728D02*
X10995Y6695D01*
X10914Y6728D02*
X10962D01*
X10995Y6695D02*
X11040D01*
X10820Y6620D02*
X10840Y6600D01*
X9285Y7325D02*
X9547D01*
X9285D02*
X9435Y7475D01*
X8557Y7267D02*
X8615Y7325D01*
X9285D01*
X10555Y7325D02*
X10660Y7220D01*
Y6841D02*
Y7220D01*
Y6841D02*
X10726Y6775D01*
X10430Y7325D02*
X10555D01*
X7670Y6930D02*
X7872D01*
Y7210D01*
Y6930D02*
X7922Y6880D01*
X8156D01*
X7670Y6676D02*
X8016D01*
X7670Y6422D02*
X7827D01*
X8407Y7131D02*
Y7225D01*
X8156Y6880D02*
X8407Y7131D01*
X8557Y7153D02*
Y7267D01*
X8510Y7170D02*
Y7260D01*
X8016Y6676D02*
X8510Y7170D01*
X7827Y6422D02*
X8557Y7153D01*
X9435Y7475D02*
X9547D01*
X8532Y7407D02*
X8615Y7325D01*
X8532Y7407D02*
Y7475D01*
X8407D02*
X8532D01*
X8495Y7275D02*
X8510Y7260D01*
X8407Y7275D02*
X8495D01*
X8320D02*
X8407D01*
X8190Y7145D02*
X8320Y7275D01*
X10726Y6728D02*
Y6775D01*
X8853Y8170D02*
Y8335D01*
X9253Y8170D02*
Y8372D01*
X9353Y7925D02*
X9418D01*
X9353D02*
Y8170D01*
X8150Y8520D02*
X8150Y8520D01*
X8305D01*
X8512Y8647D02*
X8602D01*
X8730Y8520D01*
X11497Y7470D02*
Y7520D01*
X11571Y7424D02*
X11618Y7470D01*
X11541Y7424D02*
X11571D01*
X11537Y7420D02*
X11541Y7424D01*
X11497Y7420D02*
X11537D01*
X11618Y7470D02*
X11643Y7495D01*
X11714Y7424D01*
Y7393D02*
Y7424D01*
Y7393D02*
X11718Y7390D01*
Y7350D02*
Y7390D01*
X11618Y7350D02*
Y7470D01*
X9418Y7925D02*
X9547D01*
X8903D02*
X9418D01*
Y7925D02*
Y7925D01*
X9395Y7525D02*
X9547D01*
X9420Y7650D02*
X9445Y7625D01*
X9285Y7650D02*
X9420D01*
X9445Y7625D02*
X9547D01*
X8312Y7911D02*
Y8080D01*
Y7911D02*
X8349Y7875D01*
X8468Y8170D02*
X8603D01*
X9325Y7575D02*
X9547D01*
X9053Y8170D02*
Y8250D01*
X9003Y8020D02*
Y8170D01*
X8645Y7925D02*
X8753D01*
X8595Y7975D02*
X8645Y7925D01*
X8407Y7975D02*
X8595D01*
X9303Y8055D02*
Y8170D01*
X9232Y7985D02*
X9303Y8055D01*
X9100Y7985D02*
X9232D01*
X8653Y8035D02*
Y8170D01*
X8753Y7925D02*
X8903D01*
Y8170D01*
X8753D02*
X8803D01*
X8703D02*
X8753D01*
X8190Y6299D02*
X8653Y6761D01*
X8444Y6299D02*
X8753Y6607D01*
X8698Y6299D02*
X8853Y6454D01*
X9053Y6453D02*
X9206Y6299D01*
X9153Y6607D02*
X9460Y6299D01*
X9253Y6761D02*
X9714Y6299D01*
X9353Y6914D02*
X9968Y6299D01*
X8057Y6178D02*
X8190Y6045D01*
X8057Y6178D02*
Y6353D01*
X8603Y6897D01*
X8322Y6344D02*
X8703Y6724D01*
X8322Y6167D02*
Y6344D01*
Y6167D02*
X8444Y6045D01*
X8572Y6345D02*
X8803Y6575D01*
X8572Y6171D02*
Y6345D01*
Y6171D02*
X8698Y6045D01*
X8830Y6167D02*
X8952Y6045D01*
X8830Y6167D02*
Y6353D01*
X8903Y6426D01*
X9003Y6420D02*
X9085Y6338D01*
Y6166D02*
Y6338D01*
Y6166D02*
X9206Y6045D01*
X9328Y6178D02*
X9460Y6045D01*
X9328Y6178D02*
Y6345D01*
X9103Y6570D02*
X9328Y6345D01*
X9203Y6720D02*
X9588Y6335D01*
Y6172D02*
Y6335D01*
Y6172D02*
X9714Y6045D01*
X9845Y6168D02*
X9968Y6045D01*
X9845Y6168D02*
Y6345D01*
X9303Y6888D02*
X9845Y6345D01*
X8603Y6897D02*
Y7030D01*
X8653Y6761D02*
Y7030D01*
X8703Y6724D02*
Y7030D01*
X8753Y6607D02*
Y7030D01*
X8803Y6575D02*
Y7030D01*
X8853Y6454D02*
Y7030D01*
X8903Y6426D02*
Y7030D01*
X8953Y6299D02*
Y7030D01*
X8952Y6299D02*
X8953Y6299D01*
X9003Y6420D02*
Y7030D01*
X9053Y6453D02*
Y7030D01*
X9103Y6570D02*
Y7030D01*
X9153Y6607D02*
Y7030D01*
X9203Y6720D02*
Y7030D01*
X9253Y6761D02*
Y7030D01*
X9303Y6888D02*
Y7030D01*
X9353Y6914D02*
Y7030D01*
X8407Y7275D02*
Y7325D01*
Y7275D02*
X8407Y7275D01*
X8407Y7375D02*
X8407Y7375D01*
X8505Y7725D02*
X8532Y7697D01*
X8407Y7725D02*
X8505D01*
X8407Y7625D02*
X8532D01*
Y7697D01*
Y7475D02*
Y7625D01*
X9547Y7425D02*
Y7475D01*
X8407Y7975D02*
Y8057D01*
X8385Y8080D02*
X8407Y8057D01*
X8312Y8080D02*
X8385D01*
X8349Y7875D02*
X8407D01*
X8530Y7825D02*
Y7925D01*
X8407D02*
X8530D01*
X9203Y8170D02*
X9253D01*
X9053Y8170D02*
X9053Y8170D01*
X8128Y7518D02*
Y7645D01*
X8228D01*
X8257Y7675D01*
X8407D01*
X7978Y7518D02*
Y7645D01*
Y7773D01*
X8407Y7525D02*
Y7575D01*
X7978Y7315D02*
Y7416D01*
Y7518D01*
Y6978D02*
Y7145D01*
X7978Y7145D01*
Y7182D01*
X8025Y7230D01*
X8185D01*
X8330Y7375D01*
X8407D01*
X8128Y7145D02*
X8190D01*
X8128Y6978D02*
Y7145D01*
X8128Y6978D02*
X8128Y6978D01*
X7872Y7210D02*
X7978Y7315D01*
X8128D02*
X8185D01*
X8345Y7475D01*
X8407D01*
X7978Y7416D02*
X8206D01*
X8315Y7525D01*
X8407D01*
X8260Y7725D02*
X8407D01*
X8212Y7773D02*
X8260Y7725D01*
X8128Y7773D02*
X8212D01*
X7978Y7843D02*
X8010Y7875D01*
X7978Y7773D02*
Y7843D01*
X8010Y7875D02*
X8175D01*
X8275Y7775D01*
X8407D01*
X8305Y7825D02*
X8407D01*
X8753Y8170D02*
X8753Y8170D01*
X8058Y8057D02*
Y8172D01*
X8207Y7922D02*
X8305Y7825D01*
X8207Y7922D02*
Y8057D01*
Y8172D01*
X8207Y8172D02*
X8207Y8172D01*
X8207Y8172D02*
X8465D01*
X8468Y8170D01*
X7950Y8172D02*
X8057D01*
X7950Y8172D02*
X7950Y8172D01*
X11432Y7710D02*
Y7843D01*
Y7710D02*
X11503Y7640D01*
X11568D01*
X11568Y7755D02*
Y7843D01*
Y7755D02*
X11618Y7705D01*
Y7640D02*
Y7705D01*
X11668Y7640D02*
Y7705D01*
X11710Y7747D01*
Y7843D01*
X11718Y7640D02*
X11797D01*
X11843Y7685D01*
Y7843D01*
X11957Y7660D02*
Y7765D01*
X11868Y7570D02*
X11957Y7660D01*
X11788Y7570D02*
X11868D01*
X11420D02*
X11497D01*
X11270Y7520D02*
X11497D01*
X11638Y7135D02*
Y7222D01*
X11668Y7253D01*
Y7350D01*
X11368Y6835D02*
Y6988D01*
X11368Y6988D02*
X11368Y6988D01*
X11368Y6988D02*
X11485D01*
X11493Y6995D01*
X11368Y7138D02*
X11495D01*
X11497Y7135D01*
X11788Y7470D02*
Y7520D01*
X11788Y7470D02*
X11878D01*
X11843Y7843D02*
X12055D01*
X11310Y7680D02*
Y7762D01*
Y7680D02*
X11420Y7570D01*
X11568Y7245D02*
Y7350D01*
X11507Y6835D02*
X11668D01*
X11878Y7045D01*
Y7470D01*
X11788Y7043D02*
Y7420D01*
X11643Y6995D02*
X11740D01*
X11788Y7043D01*
X8962Y8340D02*
X9053Y8250D01*
X9050Y8360D02*
Y8402D01*
X9103Y8170D02*
Y8316D01*
X9130Y8344D01*
Y8410D01*
X9032Y8420D02*
X9050Y8402D01*
X8937Y8420D02*
X9032D01*
X8853Y8335D02*
X8937Y8420D01*
X9500Y8220D02*
X9635Y8355D01*
Y8520D01*
X9450Y8170D02*
X9500Y8220D01*
X9353Y8170D02*
X9450D01*
X9345Y8655D02*
X9355D01*
X9210Y8520D02*
X9345Y8655D01*
X9770Y8490D02*
X9800Y8520D01*
X10110D01*
X10535Y8520D02*
X10650D01*
X10590Y6600D02*
Y6720D01*
X10600Y6187D02*
X10690Y6277D01*
Y6500D01*
X10590Y6600D02*
X10690Y6500D01*
X10820Y6620D02*
Y6728D01*
X10726D02*
X10820D01*
X10270Y7195D02*
Y7325D01*
X10430D01*
X10270Y7455D02*
X10385D01*
X10430Y7410D01*
Y7325D02*
Y7410D01*
X10755Y6845D02*
X11040D01*
X10726Y6874D02*
X10755Y6845D01*
X10726Y6874D02*
Y6972D01*
X10820D02*
Y7075D01*
X10755Y7140D02*
X10820Y7075D01*
X10914Y6972D02*
Y7131D01*
X10905Y7140D02*
X10914Y7131D01*
X10755Y7140D02*
Y7290D01*
X10755Y7290D01*
Y7480D01*
X10755Y7480D02*
X10755Y7480D01*
X10660Y7480D02*
X10755D01*
X10905Y7140D02*
Y7290D01*
X10905Y7290D01*
Y7570D01*
X10900Y7575D02*
X10905Y7570D01*
X10420Y7565D02*
X10430Y7575D01*
X10565Y7480D02*
Y7570D01*
X10560Y7575D02*
X10565Y7570D01*
X10430Y7575D02*
X10560D01*
X10900D01*
X10760Y7725D02*
X10900D01*
X10755Y7720D02*
X10760Y7725D01*
X10425Y7720D02*
X10565D01*
X10420Y7715D02*
X10425Y7720D01*
X10280Y7715D02*
X10420D01*
X10280Y7715D02*
X10280Y7715D01*
X10185Y7715D02*
X10280D01*
X10160Y7690D02*
X10185Y7715D01*
X10065Y7690D02*
X10160D01*
X10065D02*
Y7810D01*
Y7935D01*
X9975Y8025D02*
X10065Y7935D01*
X9760Y8025D02*
X9975D01*
X9695D02*
X9760D01*
X9645Y7975D02*
X9695Y8025D01*
X9547Y7975D02*
X9645D01*
X9547Y7875D02*
X9760D01*
X9547Y7875D02*
X9547Y7875D01*
X9547Y7775D02*
X9805D01*
X9840Y7810D01*
X9915D01*
X9547Y7675D02*
X9765D01*
X9780Y7690D01*
X9915D01*
X9915Y7690D01*
X9730Y7375D02*
X9730Y7375D01*
X9850D01*
X9547Y7325D02*
X9625D01*
X9705Y7245D01*
X9770D01*
X9910D01*
Y7290D01*
X9945Y7325D01*
X10050D01*
X9770Y7095D02*
X9910D01*
X9910Y7095D01*
X10030D01*
X10115Y7180D01*
X9547Y7525D02*
X9625D01*
X9547Y7375D02*
X9730D01*
X9640D02*
Y7510D01*
X9625Y7525D02*
X9640Y7510D01*
X9547Y7575D02*
X9680D01*
X9730Y7525D01*
X9850D01*
X9547Y7625D02*
X9828D01*
X9853Y7600D01*
X9975D01*
X10065Y7690D01*
X9240Y7605D02*
X9285Y7650D01*
X9240Y7370D02*
Y7605D01*
Y7370D02*
X9395Y7525D01*
X8407Y7825D02*
X8725D01*
X9100Y7450D01*
X8407Y7775D02*
X8675D01*
X9080Y7370D01*
X9240D01*
X11270Y7370D02*
X11360D01*
X11410Y7420D01*
X11497D01*
X10280Y7565D02*
X10420D01*
X12055Y7843D02*
Y8125D01*
X11190Y7520D02*
X11270D01*
X10592Y8045D02*
X10600Y8053D01*
X10592Y7880D02*
Y8045D01*
X10900Y7575D02*
X10990Y7665D01*
Y7798D01*
X10908Y7880D02*
X10990Y7798D01*
X10600Y8307D02*
X10933D01*
X11180Y6600D02*
X11330Y6750D01*
X10840Y6600D02*
X11180D01*
X11507Y6768D02*
Y6835D01*
X11330Y6750D02*
X11490D01*
X11507Y6768D01*
X11806Y6470D02*
X11890D01*
X11910Y6490D01*
X11720Y6606D02*
X11796D01*
X11806Y6596D01*
Y6520D02*
Y6606D01*
X11870Y6670D01*
Y6735D01*
X12020D01*
X11910Y6490D02*
X12030D01*
X11514Y8146D02*
Y8246D01*
Y8146D02*
X11540Y8120D01*
X11730D01*
X11449Y8246D02*
Y8349D01*
X11730Y8300D02*
X11980D01*
X11449Y8349D02*
X11470Y8370D01*
X12020D01*
X11579Y8246D02*
X11593Y8232D01*
X11948D01*
X12055Y8125D01*
X11806Y6370D02*
X12300D01*
X11806Y6420D02*
X12286D01*
X12300Y6370D02*
X12360Y6430D01*
X12286Y6420D02*
X12315Y6449D01*
X11550Y6030D02*
X11570Y6050D01*
Y6134D01*
X11616D02*
X11620D01*
X11569Y5985D02*
X11616Y6032D01*
Y6134D01*
X11055Y6160D02*
X11170D01*
X11345Y5985D01*
X11569D01*
X11210Y6184D02*
X11364Y6030D01*
X11550D01*
X11055Y6310D02*
X11170D01*
X11210Y6270D01*
Y6184D02*
Y6270D01*
X12360Y6430D02*
Y6780D01*
X12315Y6449D02*
Y6725D01*
X12030Y6490D02*
X12125D01*
X12220D01*
X12120Y6495D02*
X12125Y6490D01*
X12120Y6495D02*
Y6570D01*
X10800Y6265D02*
X10905Y6160D01*
Y6310D02*
Y6445D01*
X10800Y6265D02*
Y6450D01*
X12280Y6860D02*
X12360Y6780D01*
X12280Y6860D02*
Y8110D01*
X12020Y8370D02*
X12280Y8110D01*
X12230Y6810D02*
X12315Y6725D01*
X12230Y6810D02*
Y8050D01*
X11980Y8300D02*
X12230Y8050D01*
X12020Y6735D02*
X12105D01*
X12180Y6810D01*
Y7718D01*
X12055Y7843D02*
X12180Y7718D01*
X11178Y6062D02*
X11310Y5930D01*
X10600Y6062D02*
X11178D01*
X11310Y5930D02*
X11916D01*
X12120Y6134D01*
D32*
X10650Y7880D02*
X10850D01*
D33*
X10600Y6062D02*
D03*
Y6187D02*
D03*
Y6313D02*
D03*
D34*
Y6438D02*
D03*
D35*
X7660Y6050D02*
D03*
Y8650D02*
D03*
X12360D02*
D03*
Y6050D02*
D03*
D36*
X8190Y6299D02*
D03*
X8444Y6045D02*
D03*
Y6299D02*
D03*
X8698Y6045D02*
D03*
Y6299D02*
D03*
X8952Y6045D02*
D03*
Y6299D02*
D03*
X9206Y6045D02*
D03*
Y6299D02*
D03*
X9460Y6045D02*
D03*
Y6299D02*
D03*
X9714Y6045D02*
D03*
Y6299D02*
D03*
X9968Y6045D02*
D03*
X9968Y6299D02*
D03*
X10222Y6045D02*
D03*
Y6299D02*
D03*
X10600Y8053D02*
D03*
X7670Y6422D02*
D03*
Y6676D02*
D03*
D37*
X8190Y6045D02*
D03*
D38*
X10600Y8307D02*
D03*
X7670Y6930D02*
D03*
D39*
X8675Y8012D02*
D03*
X9253Y8372D02*
D03*
X8962Y8340D02*
D03*
X10480Y6630D02*
D03*
X10590Y6720D02*
D03*
X8512Y8647D02*
D03*
X8150Y8520D02*
D03*
X8312Y8080D02*
D03*
X8468Y8170D02*
D03*
X9325Y7575D02*
D03*
X9003Y8020D02*
D03*
X9100Y7985D02*
D03*
X7950Y8172D02*
D03*
X9130Y8410D02*
D03*
X9050Y8360D02*
D03*
X9500Y8220D02*
D03*
X9355Y8655D02*
D03*
X9770Y8490D02*
D03*
X10650Y8520D02*
D03*
X10430Y7325D02*
D03*
X9100Y7450D02*
D03*
X11730Y8120D02*
D03*
Y8300D02*
D03*
X12120Y6570D02*
D03*
X10905Y6445D02*
D03*
X10800D02*
D03*
X12120Y6134D02*
D03*
M02*
