G04 Layer_Color=128*
%FSLAX42Y42*%
%MOMM*%
G71*
G01*
G75*
%ADD10R,0.90X0.70*%
%ADD11R,0.80X0.90*%
%ADD19R,0.70X0.90*%
%ADD26R,1.30X1.50*%
%ADD40R,1.15X1.40*%
%ADD41R,1.10X0.60*%
%ADD42O,1.80X0.30*%
%ADD43O,0.30X1.80*%
%ADD44R,1.30X1.00*%
D10*
X9875Y7628D02*
D03*
Y7478D02*
D03*
X8435Y7372D02*
D03*
Y7522D02*
D03*
X9153Y6597D02*
D03*
Y6747D02*
D03*
X8612Y7532D02*
D03*
Y7682D02*
D03*
X9210Y8655D02*
D03*
Y8505D02*
D03*
X9530Y8655D02*
D03*
Y8505D02*
D03*
X9870Y8205D02*
D03*
Y8355D02*
D03*
X10220Y8405D02*
D03*
Y8555D02*
D03*
D11*
X7982Y6997D02*
D03*
X8122D02*
D03*
D19*
X10282Y7780D02*
D03*
X10132D02*
D03*
X10135Y7268D02*
D03*
X10285D02*
D03*
X9875Y7780D02*
D03*
X10025D02*
D03*
X8535Y6870D02*
D03*
X8385D02*
D03*
X9635Y6910D02*
D03*
X9785D02*
D03*
X8855Y6597D02*
D03*
X9005D02*
D03*
X9872Y7905D02*
D03*
X9722D02*
D03*
X7978Y7175D02*
D03*
X8128D02*
D03*
X7950Y8353D02*
D03*
X8100D02*
D03*
X8818Y8170D02*
D03*
X8668D02*
D03*
X8250Y7947D02*
D03*
X8100D02*
D03*
X8100Y7815D02*
D03*
X8250D02*
D03*
X8578Y7180D02*
D03*
X8428D02*
D03*
X10020Y8480D02*
D03*
X9870D02*
D03*
X10505Y8550D02*
D03*
X10355D02*
D03*
D26*
X10430Y8050D02*
D03*
X10130D02*
D03*
D40*
X7970Y7390D02*
D03*
Y7610D02*
D03*
X8130D02*
D03*
Y7390D02*
D03*
D41*
X10038Y7630D02*
D03*
X10038Y7440D02*
D03*
X10278Y7440D02*
D03*
Y7535D02*
D03*
Y7630D02*
D03*
D42*
X8822Y7130D02*
D03*
Y7180D02*
D03*
Y7230D02*
D03*
Y7280D02*
D03*
Y7330D02*
D03*
Y7380D02*
D03*
Y7430D02*
D03*
Y7480D02*
D03*
Y7530D02*
D03*
Y7580D02*
D03*
Y7630D02*
D03*
Y7680D02*
D03*
X9632D02*
D03*
Y7630D02*
D03*
Y7580D02*
D03*
Y7530D02*
D03*
Y7480D02*
D03*
Y7430D02*
D03*
Y7380D02*
D03*
Y7330D02*
D03*
Y7280D02*
D03*
Y7230D02*
D03*
Y7180D02*
D03*
Y7130D02*
D03*
D43*
X8953Y7810D02*
D03*
X9003D02*
D03*
X9053D02*
D03*
X9103D02*
D03*
X9153D02*
D03*
X9203D02*
D03*
X9253D02*
D03*
X9303D02*
D03*
X9353D02*
D03*
X9403D02*
D03*
X9453D02*
D03*
X9503D02*
D03*
Y7000D02*
D03*
X9453D02*
D03*
X9403D02*
D03*
X9353D02*
D03*
X9303D02*
D03*
X9253D02*
D03*
X9203D02*
D03*
X9153D02*
D03*
X9103D02*
D03*
X9053D02*
D03*
X9003D02*
D03*
X8953D02*
D03*
D44*
X12160Y8480D02*
D03*
Y8330D02*
D03*
Y8180D02*
D03*
X12160Y8030D02*
D03*
X12160Y7880D02*
D03*
Y7730D02*
D03*
Y7580D02*
D03*
Y7430D02*
D03*
Y7280D02*
D03*
Y7130D02*
D03*
X12160Y6980D02*
D03*
X12160Y6830D02*
D03*
X12160Y6680D02*
D03*
X10860D02*
D03*
X10860Y6830D02*
D03*
X10860Y6980D02*
D03*
X10860Y7130D02*
D03*
Y7430D02*
D03*
Y7580D02*
D03*
Y7730D02*
D03*
Y7880D02*
D03*
X10860Y8030D02*
D03*
X10860Y8180D02*
D03*
Y8330D02*
D03*
Y8480D02*
D03*
M02*
