G04 Layer_Physical_Order=2*
G04 Layer_Color=16711680*
%FSLAX42Y42*%
%MOMM*%
G71*
G01*
G75*
%ADD10R,0.90X0.70*%
%ADD11R,0.80X0.90*%
%ADD19R,0.70X0.90*%
%ADD26R,1.30X1.50*%
%ADD31C,0.25*%
%ADD32C,0.50*%
%ADD33O,1.00X0.75*%
%ADD34R,1.00X0.75*%
%ADD35C,1.52*%
%ADD36C,1.50*%
%ADD37R,1.50X1.50*%
%ADD38R,1.50X1.50*%
%ADD39C,0.60*%
%ADD40R,1.15X1.40*%
%ADD41R,1.10X0.60*%
%ADD42O,1.80X0.30*%
%ADD43O,0.30X1.80*%
%ADD44R,1.30X1.00*%
D10*
X9875Y7628D02*
D03*
Y7478D02*
D03*
X8435Y7372D02*
D03*
Y7522D02*
D03*
X9153Y6597D02*
D03*
Y6747D02*
D03*
X8612Y7532D02*
D03*
Y7682D02*
D03*
X9210Y8655D02*
D03*
Y8505D02*
D03*
X9530Y8655D02*
D03*
Y8505D02*
D03*
X9870Y8205D02*
D03*
Y8355D02*
D03*
X10220Y8405D02*
D03*
Y8555D02*
D03*
D11*
X7982Y6997D02*
D03*
X8122D02*
D03*
D19*
X10282Y7780D02*
D03*
X10132D02*
D03*
X10135Y7268D02*
D03*
X10285D02*
D03*
X9875Y7780D02*
D03*
X10025D02*
D03*
X8535Y6870D02*
D03*
X8385D02*
D03*
X9635Y6910D02*
D03*
X9785D02*
D03*
X8855Y6597D02*
D03*
X9005D02*
D03*
X9872Y7905D02*
D03*
X9722D02*
D03*
X7978Y7175D02*
D03*
X8128D02*
D03*
X7950Y8353D02*
D03*
X8100D02*
D03*
X8818Y8170D02*
D03*
X8668D02*
D03*
X8250Y7947D02*
D03*
X8100D02*
D03*
X8100Y7815D02*
D03*
X8250D02*
D03*
X8578Y7180D02*
D03*
X8428D02*
D03*
X10020Y8480D02*
D03*
X9870D02*
D03*
X10505Y8550D02*
D03*
X10355D02*
D03*
D26*
X10430Y8050D02*
D03*
X10130D02*
D03*
D31*
X9760Y6690D02*
X10204D01*
X10374Y6520D01*
X10662D01*
X10517Y6313D02*
X10600D01*
X10190Y6640D02*
X10517Y6313D01*
X9746Y6640D02*
X10190D01*
X9635Y6815D02*
X9760Y6690D01*
X9503Y6883D02*
X9746Y6640D01*
X9503Y6883D02*
Y7000D01*
X9635Y6815D02*
Y6910D01*
X8100Y7815D02*
Y8353D01*
X8612Y7682D02*
Y7803D01*
X8468Y7947D02*
X8612Y7803D01*
X8675Y7862D02*
Y8012D01*
X8468Y7947D02*
Y8170D01*
X8250Y7947D02*
X8468D01*
X8250Y7815D02*
X8412D01*
X8428Y7107D02*
Y7180D01*
X8318Y6997D02*
X8428Y7107D01*
X8122Y6997D02*
X8318D01*
X8128Y7175D02*
Y7270D01*
X7970D02*
X8128D01*
X7970D02*
Y7390D01*
X8335Y7275D02*
X8562D01*
X8235Y7175D02*
X8335Y7275D01*
X8128Y7175D02*
X8235D01*
X8432Y7370D02*
X8435Y7372D01*
X8270Y7370D02*
X8432D01*
X8250Y7390D02*
X8270Y7370D01*
X8130Y7390D02*
X8250D01*
X8130Y7610D02*
X8347D01*
X8435Y7522D01*
X10135Y8405D02*
X10220D01*
X9935Y8205D02*
X10135Y8405D01*
X9870Y8205D02*
X9935D01*
X10700Y8410D02*
X10780Y8330D01*
X10225Y8410D02*
X10700D01*
X10220Y8405D02*
X10225Y8410D01*
X10780Y8330D02*
X10838D01*
X10838Y8330D01*
X8870Y8340D02*
X8962D01*
X8818Y8288D02*
X8870Y8340D01*
X8818Y8170D02*
Y8288D01*
X10300Y7010D02*
X10590Y6720D01*
X10060Y7010D02*
X10300D01*
X9840Y7230D02*
X10060Y7010D01*
X9632Y7380D02*
X9754D01*
X10064Y7070D01*
X10347D01*
X9632Y7230D02*
X9840D01*
X10072Y7130D02*
X10385D01*
X9772Y7430D02*
X10072Y7130D01*
X9632Y7430D02*
X9772D01*
X10347Y7070D02*
X10738Y6680D01*
X10385Y7130D02*
X10685Y6830D01*
X9153Y6747D02*
Y7000D01*
X9153Y6747D02*
X9153Y6747D01*
X9003Y6600D02*
Y7000D01*
X8953Y6828D02*
Y7000D01*
X8855Y6730D02*
X8953Y6828D01*
X8855Y6597D02*
Y6730D01*
X8535Y6870D02*
Y6980D01*
X8685Y7130D01*
X8822D01*
X8578Y7180D02*
X8822D01*
X8562Y7275D02*
X8618Y7330D01*
X8822D01*
X8435Y7522D02*
X8578Y7380D01*
X8822D01*
X8468Y8170D02*
X8668D01*
X8953Y7810D02*
Y7928D01*
X8818Y8062D02*
X8953Y7928D01*
X8818Y8062D02*
Y8170D01*
X9053Y7810D02*
Y7910D01*
X9003Y7960D02*
X9053Y7910D01*
X9003Y7960D02*
Y8020D01*
X9103Y7810D02*
Y7982D01*
X9100Y7985D02*
X9103Y7982D01*
X9003Y7703D02*
Y7810D01*
X8820Y7432D02*
X8822Y7430D01*
X8591Y7432D02*
X8820D01*
X8528Y7496D02*
X8591Y7432D01*
X8528Y7496D02*
Y7700D01*
X8707Y7630D02*
X8822D01*
X8693Y7645D02*
X8707Y7630D01*
X8693Y7645D02*
Y7845D01*
X8675Y7862D02*
X8693Y7845D01*
X8615Y7530D02*
X8822D01*
X8612Y7532D02*
X8615Y7530D01*
X8412Y7815D02*
X8528Y7700D01*
X9153Y7810D02*
Y7940D01*
X9178Y7965D01*
X10038Y7312D02*
Y7440D01*
X10738Y6680D02*
X10860D01*
X10685Y6830D02*
X10860D01*
X9875Y7628D02*
X10035D01*
X9875Y7628D02*
Y7780D01*
X9872Y7782D02*
Y7905D01*
Y7782D02*
X9875Y7780D01*
X10282Y7635D02*
Y7780D01*
X10278Y7630D02*
X10282Y7635D01*
X10038Y7312D02*
X10082Y7268D01*
X10135D01*
X9618Y7780D02*
X9875D01*
X9588Y7810D02*
X9618Y7780D01*
X9503Y7810D02*
X9588D01*
X8100Y8353D02*
Y8470D01*
X8150Y8520D01*
X8893Y7060D02*
X8962Y7130D01*
X8822D02*
X8893Y7060D01*
X8953Y7000D01*
X9412Y7131D02*
Y7450D01*
X8962Y7130D02*
X9632D01*
X9050Y8360D02*
X9178Y8232D01*
Y7965D02*
Y8232D01*
X9303Y7810D02*
Y8266D01*
X9253Y8316D02*
Y8372D01*
Y8316D02*
X9303Y8266D01*
X9130Y8350D02*
Y8410D01*
Y8350D02*
X9253Y8228D01*
Y7810D02*
Y8228D01*
X9353Y7810D02*
Y8428D01*
X9453Y7810D02*
X9455Y7812D01*
Y8175D01*
X9500Y8220D01*
X9275Y8505D02*
X9353Y8428D01*
X9210Y8505D02*
X9275D01*
X9403Y7810D02*
Y8433D01*
X9475Y8505D01*
X9530D01*
X9210Y8655D02*
X9285Y8580D01*
X9355Y8655D02*
X9530D01*
X9870Y7907D02*
Y8205D01*
Y8355D02*
Y8480D01*
X9530Y8655D02*
X10120D01*
X10220Y8555D01*
X10350D01*
X9285Y8580D02*
X9680D01*
X9770Y8490D01*
X9860D01*
X9870Y8480D01*
X10278Y7630D02*
X10400D01*
X10430Y7600D01*
Y7325D02*
Y7600D01*
X10278Y7440D02*
X10430D01*
X9635Y6910D02*
Y7128D01*
X9632Y7130D02*
X9635Y7128D01*
X9100Y7450D02*
X9412D01*
X9503Y7541D01*
Y7810D01*
X9003Y7668D02*
Y7703D01*
Y7668D02*
X9095Y7575D01*
X9325D01*
X10430Y8050D02*
X10597D01*
X10600Y8053D01*
X11730Y8120D02*
Y8300D01*
X10860Y6830D02*
X10950D01*
X10990Y6790D01*
X10860Y6580D02*
Y6680D01*
X10990Y6610D02*
Y6790D01*
X10600Y6062D02*
X10662D01*
X10800Y6520D02*
X10860Y6580D01*
X10905Y6525D02*
X10990Y6610D01*
X10905Y6445D02*
Y6525D01*
X10800Y6450D02*
Y6520D01*
X10662Y6062D02*
X10690Y6090D01*
Y6493D01*
X10662Y6520D02*
X10690Y6493D01*
X12120Y6134D02*
Y6570D01*
D32*
X10180Y8050D02*
X10380D01*
D33*
X10600Y6062D02*
D03*
Y6187D02*
D03*
Y6313D02*
D03*
D34*
Y6438D02*
D03*
D35*
X7660Y6050D02*
D03*
Y8650D02*
D03*
X12360D02*
D03*
Y6050D02*
D03*
D36*
X8190Y6299D02*
D03*
X8444Y6045D02*
D03*
Y6299D02*
D03*
X8698Y6045D02*
D03*
Y6299D02*
D03*
X8952Y6045D02*
D03*
Y6299D02*
D03*
X9206Y6045D02*
D03*
Y6299D02*
D03*
X9460Y6045D02*
D03*
Y6299D02*
D03*
X9714Y6045D02*
D03*
Y6299D02*
D03*
X9968Y6045D02*
D03*
X9968Y6299D02*
D03*
X10222Y6045D02*
D03*
Y6299D02*
D03*
X10600Y8053D02*
D03*
X7670Y6422D02*
D03*
Y6676D02*
D03*
D37*
X8190Y6045D02*
D03*
D38*
X10600Y8307D02*
D03*
X7670Y6930D02*
D03*
D39*
X8675Y8012D02*
D03*
X9253Y8372D02*
D03*
X8962Y8340D02*
D03*
X10480Y6630D02*
D03*
X10590Y6720D02*
D03*
X8512Y8647D02*
D03*
X8150Y8520D02*
D03*
X8312Y8080D02*
D03*
X8468Y8170D02*
D03*
X9325Y7575D02*
D03*
X9003Y8020D02*
D03*
X9100Y7985D02*
D03*
X7950Y8172D02*
D03*
X9130Y8410D02*
D03*
X9050Y8360D02*
D03*
X9500Y8220D02*
D03*
X9355Y8655D02*
D03*
X9770Y8490D02*
D03*
X10650Y8520D02*
D03*
X10430Y7325D02*
D03*
X9100Y7450D02*
D03*
X11730Y8120D02*
D03*
Y8300D02*
D03*
X12120Y6570D02*
D03*
X10905Y6445D02*
D03*
X10800D02*
D03*
X12120Y6134D02*
D03*
D40*
X7970Y7390D02*
D03*
Y7610D02*
D03*
X8130D02*
D03*
Y7390D02*
D03*
D41*
X10038Y7630D02*
D03*
X10038Y7440D02*
D03*
X10278Y7440D02*
D03*
Y7535D02*
D03*
Y7630D02*
D03*
D42*
X8822Y7130D02*
D03*
Y7180D02*
D03*
Y7230D02*
D03*
Y7280D02*
D03*
Y7330D02*
D03*
Y7380D02*
D03*
Y7430D02*
D03*
Y7480D02*
D03*
Y7530D02*
D03*
Y7580D02*
D03*
Y7630D02*
D03*
Y7680D02*
D03*
X9632D02*
D03*
Y7630D02*
D03*
Y7580D02*
D03*
Y7530D02*
D03*
Y7480D02*
D03*
Y7430D02*
D03*
Y7380D02*
D03*
Y7330D02*
D03*
Y7280D02*
D03*
Y7230D02*
D03*
Y7180D02*
D03*
Y7130D02*
D03*
D43*
X8953Y7810D02*
D03*
X9003D02*
D03*
X9053D02*
D03*
X9103D02*
D03*
X9153D02*
D03*
X9203D02*
D03*
X9253D02*
D03*
X9303D02*
D03*
X9353D02*
D03*
X9403D02*
D03*
X9453D02*
D03*
X9503D02*
D03*
Y7000D02*
D03*
X9453D02*
D03*
X9403D02*
D03*
X9353D02*
D03*
X9303D02*
D03*
X9253D02*
D03*
X9203D02*
D03*
X9153D02*
D03*
X9103D02*
D03*
X9053D02*
D03*
X9003D02*
D03*
X8953D02*
D03*
D44*
X12160Y8480D02*
D03*
Y8330D02*
D03*
Y8180D02*
D03*
X12160Y8030D02*
D03*
X12160Y7880D02*
D03*
Y7730D02*
D03*
Y7580D02*
D03*
Y7430D02*
D03*
Y7280D02*
D03*
Y7130D02*
D03*
X12160Y6980D02*
D03*
X12160Y6830D02*
D03*
X12160Y6680D02*
D03*
X10860D02*
D03*
X10860Y6830D02*
D03*
X10860Y6980D02*
D03*
X10860Y7130D02*
D03*
Y7430D02*
D03*
Y7580D02*
D03*
Y7730D02*
D03*
Y7880D02*
D03*
X10860Y8030D02*
D03*
X10860Y8180D02*
D03*
Y8330D02*
D03*
Y8480D02*
D03*
M02*
