M48
;Layer_Color=9474304
;FILE_FORMAT=4:2
METRIC,LZ
;TYPE=PLATED
T1F00S00C0.30
T2F00S00C0.50
T3F00S00C0.76
T4F00S00C0.90
%
T01
X01212Y006134
Y00657
X010905Y006445
X0108
X01059Y00672
X01048Y00663
X01043Y007325
X009325Y007575
X0091Y00745
Y007985
X009003Y00802
X008675Y008012
X008468Y00817
X008312Y00808
X00795Y008172
X00815Y00852
X00854
X008962Y00834
X00905Y00836
X00913Y00841
X009253Y008372
X009355Y008655
X0095Y00822
X00977Y00849
X01065Y00852
X01173Y0083
Y00814
T02
X0106Y006062
Y006187
Y006313
Y006438
X00767Y006551
Y006676
Y006801
X0106Y008118
Y008242
T03
X01236Y00605
X00766
Y00865
X01236
T04
X00819Y006045
Y006299
X008444
Y006045
X008698
Y006299
X008952Y006299
Y006045
X009206Y006045
Y006299
X00946
Y006045
X009714
Y006299
X009968
X009968Y006045
X010222
Y006299
M30
