G04 Layer_Physical_Order=2*
G04 Layer_Color=16711680*
%FSLAX42Y42*%
%MOMM*%
G71*
G01*
G75*
%ADD12R,0.90X0.70*%
%ADD13R,0.80X0.90*%
%ADD19R,0.70X0.90*%
%ADD29R,1.30X1.50*%
%ADD30C,0.25*%
%ADD32C,0.50*%
%ADD33O,1.00X0.75*%
%ADD34R,1.00X0.75*%
%ADD35C,1.52*%
%ADD36C,1.50*%
%ADD37R,1.50X1.50*%
%ADD38O,1.50X1.00*%
%ADD39R,1.50X1.00*%
%ADD40C,0.60*%
%ADD41R,1.15X1.40*%
%ADD42R,1.10X0.60*%
%ADD43O,1.80X0.30*%
%ADD44O,0.30X1.80*%
%ADD45R,1.30X1.00*%
G36*
X12467Y8691D02*
X12454Y8689D01*
X12449Y8701D01*
X12432Y8722D01*
X12411Y8739D01*
X12387Y8749D01*
X12373Y8751D01*
Y8650D01*
Y8549D01*
X12387Y8551D01*
X12411Y8561D01*
X12432Y8578D01*
X12449Y8599D01*
X12454Y8611D01*
X12467Y8609D01*
Y6091D01*
X12454Y6089D01*
X12449Y6101D01*
X12432Y6122D01*
X12411Y6139D01*
X12387Y6149D01*
X12373Y6151D01*
Y6050D01*
Y5949D01*
X12387Y5951D01*
X12411Y5961D01*
X12432Y5978D01*
X12449Y5999D01*
X12454Y6011D01*
X12467Y6009D01*
Y5833D01*
X7533D01*
Y8767D01*
X12467D01*
Y8691D01*
D02*
G37*
%LPC*%
G36*
X12347Y8751D02*
X12333Y8749D01*
X12309Y8739D01*
X12288Y8722D01*
X12271Y8701D01*
X12261Y8677D01*
X12259Y8663D01*
X12347D01*
Y8751D01*
D02*
G37*
G36*
X7673D02*
Y8663D01*
X7761D01*
X7759Y8677D01*
X7749Y8701D01*
X7732Y8722D01*
X7711Y8739D01*
X7687Y8749D01*
X7673Y8751D01*
D02*
G37*
G36*
X7647D02*
X7633Y8749D01*
X7609Y8739D01*
X7588Y8722D01*
X7571Y8701D01*
X7561Y8677D01*
X7559Y8663D01*
X7647D01*
Y8751D01*
D02*
G37*
G36*
X10565Y8620D02*
X10518D01*
Y8563D01*
X10565D01*
Y8620D01*
D02*
G37*
G36*
X10492D02*
X10445D01*
Y8563D01*
X10492D01*
Y8620D01*
D02*
G37*
G36*
X12347Y8637D02*
X12259D01*
X12261Y8623D01*
X12271Y8599D01*
X12288Y8578D01*
X12309Y8561D01*
X12333Y8551D01*
X12347Y8549D01*
Y8637D01*
D02*
G37*
G36*
X7761D02*
X7673D01*
Y8549D01*
X7687Y8551D01*
X7711Y8561D01*
X7732Y8578D01*
X7749Y8599D01*
X7759Y8623D01*
X7761Y8637D01*
D02*
G37*
G36*
X7647D02*
X7559D01*
X7561Y8623D01*
X7571Y8599D01*
X7588Y8578D01*
X7609Y8561D01*
X7633Y8551D01*
X7647Y8549D01*
Y8637D01*
D02*
G37*
G36*
X10663Y8574D02*
Y8533D01*
X10704D01*
X10702Y8542D01*
X10690Y8560D01*
X10672Y8572D01*
X10663Y8574D01*
D02*
G37*
G36*
X10637D02*
X10628Y8572D01*
X10610Y8560D01*
X10598Y8542D01*
X10596Y8533D01*
X10637D01*
Y8574D01*
D02*
G37*
G36*
X8553D02*
Y8533D01*
X8594D01*
X8592Y8542D01*
X8580Y8560D01*
X8562Y8572D01*
X8553Y8574D01*
D02*
G37*
G36*
X8527D02*
X8518Y8572D01*
X8500Y8560D01*
X8488Y8542D01*
X8486Y8533D01*
X8527D01*
Y8574D01*
D02*
G37*
G36*
X10950Y8555D02*
X10873D01*
Y8493D01*
X10950D01*
Y8555D01*
D02*
G37*
G36*
X10847D02*
X10770D01*
Y8493D01*
X10847D01*
Y8555D01*
D02*
G37*
G36*
X10080Y8550D02*
X10033D01*
Y8493D01*
X10080D01*
Y8550D01*
D02*
G37*
G36*
X10007D02*
X9960D01*
Y8493D01*
X10007D01*
Y8550D01*
D02*
G37*
G36*
X9355Y8711D02*
X9333Y8707D01*
X9315Y8695D01*
X9311Y8688D01*
X9028D01*
X9015Y8686D01*
X9004Y8679D01*
X8724Y8398D01*
X8315D01*
Y8420D01*
X8185D01*
Y8310D01*
X8315D01*
Y8332D01*
X8738D01*
X8751Y8334D01*
X8761Y8341D01*
X9042Y8622D01*
X9311D01*
X9315Y8615D01*
X9333Y8603D01*
X9355Y8599D01*
X9377Y8603D01*
X9395Y8615D01*
X9399Y8622D01*
X10106D01*
X10155Y8573D01*
Y8500D01*
X10285D01*
Y8522D01*
X10300D01*
Y8485D01*
X10410D01*
Y8615D01*
X10300D01*
Y8588D01*
X10285D01*
Y8610D01*
X10212D01*
X10144Y8679D01*
X10133Y8686D01*
X10120Y8688D01*
X9399D01*
X9395Y8695D01*
X9377Y8707D01*
X9355Y8711D01*
D02*
G37*
G36*
X10565Y8537D02*
X10518D01*
Y8480D01*
X10565D01*
Y8537D01*
D02*
G37*
G36*
X10492D02*
X10445D01*
Y8480D01*
X10492D01*
Y8537D01*
D02*
G37*
G36*
X10704Y8507D02*
X10663D01*
Y8466D01*
X10672Y8468D01*
X10690Y8480D01*
X10702Y8498D01*
X10704Y8507D01*
D02*
G37*
G36*
X10637D02*
X10596D01*
X10598Y8498D01*
X10610Y8480D01*
X10628Y8468D01*
X10637Y8466D01*
Y8507D01*
D02*
G37*
G36*
X8594D02*
X8553D01*
Y8466D01*
X8562Y8468D01*
X8580Y8480D01*
X8592Y8498D01*
X8594Y8507D01*
D02*
G37*
G36*
X8527D02*
X8486D01*
X8488Y8498D01*
X8500Y8480D01*
X8518Y8468D01*
X8527Y8466D01*
Y8507D01*
D02*
G37*
G36*
X10080Y8467D02*
X10033D01*
Y8410D01*
X10080D01*
Y8467D01*
D02*
G37*
G36*
X10007D02*
X9960D01*
Y8410D01*
X10007D01*
Y8467D01*
D02*
G37*
G36*
X8010Y8423D02*
X7963D01*
Y8365D01*
X8010D01*
Y8423D01*
D02*
G37*
G36*
X7937D02*
X7890D01*
Y8365D01*
X7937D01*
Y8423D01*
D02*
G37*
G36*
X9680Y8555D02*
X9570D01*
Y8425D01*
X9680D01*
Y8457D01*
X9726D01*
X9730Y8450D01*
X9748Y8438D01*
X9770Y8434D01*
X9792Y8438D01*
X9802Y8445D01*
X9815Y8438D01*
Y8415D01*
X9805Y8410D01*
Y8300D01*
X9935D01*
Y8410D01*
X9925Y8415D01*
Y8545D01*
X9815D01*
Y8542D01*
X9802Y8535D01*
X9792Y8542D01*
X9770Y8546D01*
X9748Y8542D01*
X9730Y8530D01*
X9726Y8523D01*
X9680D01*
Y8555D01*
D02*
G37*
G36*
X8010Y8340D02*
X7963D01*
Y8282D01*
X8010D01*
Y8340D01*
D02*
G37*
G36*
X7937D02*
X7890D01*
Y8282D01*
X7937D01*
Y8340D01*
D02*
G37*
G36*
X9513Y8274D02*
Y8233D01*
X9554D01*
X9552Y8242D01*
X9540Y8260D01*
X9522Y8272D01*
X9513Y8274D01*
D02*
G37*
G36*
X9487D02*
X9478Y8272D01*
X9460Y8260D01*
X9448Y8242D01*
X9446Y8233D01*
X9487D01*
Y8274D01*
D02*
G37*
G36*
X7963Y8226D02*
Y8185D01*
X8004D01*
X8002Y8194D01*
X7990Y8212D01*
X7972Y8225D01*
X7963Y8226D01*
D02*
G37*
G36*
X7937D02*
X7928Y8225D01*
X7910Y8212D01*
X7898Y8194D01*
X7896Y8185D01*
X7937D01*
Y8226D01*
D02*
G37*
G36*
X8004Y8160D02*
X7963D01*
Y8119D01*
X7972Y8120D01*
X7990Y8133D01*
X8002Y8151D01*
X8004Y8160D01*
D02*
G37*
G36*
X7937D02*
X7896D01*
X7898Y8151D01*
X7910Y8133D01*
X7928Y8120D01*
X7937Y8119D01*
Y8160D01*
D02*
G37*
G36*
X10700Y8318D02*
X10500D01*
Y8167D01*
X10503D01*
X10508Y8156D01*
X10501Y8145D01*
X10345D01*
Y8096D01*
X10220D01*
Y8150D01*
X10143D01*
Y8075D01*
X10138Y8068D01*
X10134Y8050D01*
X10138Y8032D01*
X10143Y8025D01*
Y7950D01*
X10220D01*
Y8004D01*
X10345D01*
Y7955D01*
X10515D01*
Y8017D01*
X10532D01*
X10545Y8019D01*
X10556Y8026D01*
X10572Y8042D01*
X10575Y8041D01*
X10625D01*
X10645Y8044D01*
X10663Y8052D01*
X10679Y8064D01*
X10691Y8079D01*
X10698Y8098D01*
X10701Y8118D01*
X10698Y8137D01*
X10691Y8154D01*
X10695Y8164D01*
X10696Y8167D01*
X10700D01*
Y8318D01*
D02*
G37*
G36*
X8325Y8134D02*
Y8093D01*
X8366D01*
X8365Y8102D01*
X8352Y8120D01*
X8334Y8132D01*
X8325Y8134D01*
D02*
G37*
G36*
X8300D02*
X8291Y8132D01*
X8273Y8120D01*
X8260Y8102D01*
X8259Y8093D01*
X8300D01*
Y8134D01*
D02*
G37*
G36*
X11730Y8356D02*
X11708Y8352D01*
X11690Y8340D01*
X11678Y8322D01*
X11674Y8300D01*
X11678Y8278D01*
X11690Y8260D01*
X11697Y8256D01*
Y8184D01*
X11690Y8180D01*
X11678Y8162D01*
X11674Y8140D01*
X11678Y8118D01*
X11690Y8100D01*
X11708Y8088D01*
X11730Y8084D01*
X11752Y8088D01*
X11770Y8100D01*
X11782Y8118D01*
X11786Y8140D01*
X11782Y8162D01*
X11770Y8180D01*
X11763Y8184D01*
Y8256D01*
X11770Y8260D01*
X11782Y8278D01*
X11786Y8300D01*
X11782Y8322D01*
X11770Y8340D01*
X11752Y8352D01*
X11730Y8356D01*
D02*
G37*
G36*
X10117Y8150D02*
X10040D01*
Y8063D01*
X10117D01*
Y8150D01*
D02*
G37*
G36*
Y8037D02*
X10040D01*
Y7950D01*
X10117D01*
Y8037D01*
D02*
G37*
G36*
X9783Y7975D02*
X9735D01*
Y7918D01*
X9783D01*
Y7975D01*
D02*
G37*
G36*
X9710D02*
X9662D01*
Y7918D01*
X9710D01*
Y7975D01*
D02*
G37*
G36*
X9783Y7892D02*
X9735D01*
Y7835D01*
X9783D01*
Y7892D01*
D02*
G37*
G36*
X9710D02*
X9662D01*
Y7835D01*
X9710D01*
Y7892D01*
D02*
G37*
G36*
X10012Y7850D02*
X9965D01*
Y7793D01*
X10012D01*
Y7850D01*
D02*
G37*
G36*
X10193Y7850D02*
X10145D01*
Y7793D01*
X10193D01*
Y7850D01*
D02*
G37*
G36*
X10012Y7767D02*
X9965D01*
Y7710D01*
X10012D01*
Y7767D01*
D02*
G37*
G36*
X10193Y7767D02*
X10145D01*
Y7710D01*
X10193D01*
Y7767D01*
D02*
G37*
G36*
X10085Y7850D02*
X10038D01*
Y7780D01*
Y7710D01*
X10072D01*
Y7710D01*
X10120D01*
Y7780D01*
Y7850D01*
X10085D01*
Y7850D01*
D02*
G37*
G36*
X7957Y7705D02*
X7887D01*
Y7623D01*
X7957D01*
Y7705D01*
D02*
G37*
G36*
Y7597D02*
X7887D01*
Y7515D01*
X7957D01*
Y7597D01*
D02*
G37*
G36*
X9945Y7538D02*
X9888D01*
Y7490D01*
X9945D01*
Y7538D01*
D02*
G37*
G36*
X9862D02*
X9805D01*
Y7490D01*
X9862D01*
Y7538D01*
D02*
G37*
G36*
X9945Y7465D02*
X9888D01*
Y7417D01*
X9945D01*
Y7465D01*
D02*
G37*
G36*
X8150Y8576D02*
X8128Y8572D01*
X8110Y8560D01*
X8098Y8542D01*
X8094Y8520D01*
X8095Y8512D01*
X8076Y8494D01*
X8069Y8483D01*
X8067Y8470D01*
Y8418D01*
X8045D01*
Y8288D01*
X8067D01*
Y8012D01*
X8045D01*
Y8012D01*
X8035D01*
Y8012D01*
X7905D01*
Y7903D01*
X8035D01*
X8045Y7896D01*
Y7882D01*
X8035Y7862D01*
X7905D01*
Y7753D01*
X8035D01*
Y7774D01*
X8262D01*
X8447Y7589D01*
X8443Y7578D01*
X8370D01*
Y7556D01*
X8351D01*
X8274Y7634D01*
X8263Y7641D01*
X8250Y7643D01*
X8207D01*
Y7700D01*
X8053D01*
Y7705D01*
X7983D01*
Y7610D01*
Y7515D01*
X8053D01*
Y7520D01*
X8207D01*
Y7577D01*
X8236D01*
X8314Y7499D01*
X8325Y7492D01*
X8338Y7489D01*
X8370D01*
Y7468D01*
X8443D01*
X8466Y7445D01*
X8461Y7433D01*
X8448D01*
Y7372D01*
X8422D01*
Y7433D01*
X8365D01*
Y7403D01*
X8284D01*
X8274Y7414D01*
X8263Y7421D01*
X8250Y7423D01*
X8213D01*
Y7485D01*
X8143D01*
Y7390D01*
X8117D01*
Y7485D01*
X8047D01*
Y7480D01*
X7893D01*
Y7300D01*
X7937D01*
Y7270D01*
X7939Y7258D01*
X7939Y7257D01*
X7932Y7245D01*
X7917D01*
Y7188D01*
X7978D01*
X8038D01*
Y7237D01*
X8072D01*
Y7110D01*
X8182D01*
Y7142D01*
X8235D01*
X8248Y7144D01*
X8259Y7151D01*
X8349Y7242D01*
X8372D01*
Y7115D01*
X8372D01*
X8377Y7104D01*
X8304Y7031D01*
X8182D01*
Y7062D01*
X8062D01*
Y6932D01*
X8182D01*
Y6964D01*
X8318D01*
X8330Y6967D01*
X8341Y6974D01*
X8451Y7084D01*
X8458Y7095D01*
X8461Y7107D01*
Y7115D01*
X8482D01*
Y7242D01*
X8522D01*
Y7115D01*
X8606D01*
X8611Y7103D01*
X8511Y7004D01*
X8504Y6993D01*
X8502Y6980D01*
Y6935D01*
X8480D01*
Y6805D01*
X8590D01*
Y6935D01*
X8568D01*
Y6966D01*
X8699Y7097D01*
X8736D01*
X8747Y7094D01*
X8811D01*
X8869Y7036D01*
X8917Y6989D01*
Y6925D01*
X8919Y6913D01*
Y6841D01*
X8831Y6754D01*
X8824Y6743D01*
X8822Y6730D01*
Y6662D01*
X8800D01*
Y6532D01*
X8910D01*
Y6662D01*
X8888D01*
Y6716D01*
X8957Y6785D01*
X8969Y6780D01*
Y6668D01*
X8945D01*
Y6610D01*
X9005D01*
X9065D01*
Y6668D01*
X9088Y6690D01*
Y6693D01*
X9218D01*
Y6803D01*
X9186D01*
Y6880D01*
X9199Y6890D01*
X9203Y6889D01*
X9216Y6892D01*
X9228Y6900D01*
X9239Y6892D01*
X9253Y6889D01*
X9266Y6892D01*
X9278Y6900D01*
X9289Y6892D01*
X9303Y6889D01*
X9316Y6892D01*
X9328Y6900D01*
X9339Y6892D01*
X9353Y6889D01*
X9366Y6892D01*
X9378Y6900D01*
X9389Y6892D01*
X9403Y6889D01*
X9416Y6892D01*
X9428Y6900D01*
X9439Y6892D01*
X9453Y6889D01*
X9456Y6890D01*
X9463Y6886D01*
X9470Y6880D01*
X9472Y6871D01*
X9479Y6860D01*
X9722Y6616D01*
X9733Y6609D01*
X9746Y6607D01*
X10176D01*
X10494Y6289D01*
X10505Y6282D01*
X10517Y6279D01*
X10534D01*
X10542Y6267D01*
X10557Y6257D01*
Y6243D01*
X10542Y6233D01*
X10528Y6212D01*
X10523Y6187D01*
X10528Y6163D01*
X10542Y6142D01*
X10557Y6132D01*
Y6118D01*
X10542Y6108D01*
X10528Y6087D01*
X10523Y6062D01*
X10528Y6038D01*
X10542Y6017D01*
X10563Y6003D01*
X10588Y5998D01*
X10612D01*
X10637Y6003D01*
X10658Y6017D01*
X10666Y6030D01*
X10675Y6032D01*
X10686Y6039D01*
X10714Y6066D01*
X10721Y6077D01*
X10723Y6090D01*
Y6493D01*
X10721Y6505D01*
X10714Y6516D01*
X10686Y6544D01*
X10675Y6551D01*
X10662Y6553D01*
X10388D01*
X10228Y6714D01*
X10217Y6721D01*
X10204Y6723D01*
X9774D01*
X9668Y6829D01*
Y6845D01*
X9690D01*
Y6975D01*
X9668D01*
Y7094D01*
X9707D01*
X9721Y7097D01*
X9733Y7105D01*
X9740Y7116D01*
X9743Y7130D01*
X9740Y7144D01*
X9736Y7150D01*
X9737Y7151D01*
X9746Y7164D01*
X9746Y7167D01*
X9632D01*
X9510D01*
X9507Y7163D01*
X9445D01*
Y7436D01*
X9509Y7500D01*
X9525Y7497D01*
X9526Y7495D01*
X9525Y7494D01*
X9522Y7480D01*
X9525Y7466D01*
X9532Y7455D01*
X9525Y7444D01*
X9522Y7430D01*
X9525Y7416D01*
X9532Y7405D01*
X9525Y7394D01*
X9522Y7380D01*
X9525Y7366D01*
X9532Y7355D01*
X9525Y7344D01*
X9522Y7330D01*
X9525Y7316D01*
X9532Y7305D01*
X9525Y7294D01*
X9522Y7280D01*
X9525Y7266D01*
X9532Y7255D01*
X9525Y7244D01*
X9522Y7230D01*
X9525Y7216D01*
X9529Y7210D01*
X9528Y7209D01*
X9519Y7196D01*
X9519Y7193D01*
X9632D01*
X9755D01*
X9758Y7197D01*
X9826D01*
X10036Y6986D01*
X10047Y6979D01*
X10060Y6977D01*
X10286D01*
X10535Y6728D01*
X10534Y6720D01*
X10538Y6698D01*
X10550Y6680D01*
X10568Y6668D01*
X10590Y6664D01*
X10612Y6668D01*
X10630Y6680D01*
X10642Y6698D01*
X10644Y6708D01*
X10658Y6712D01*
X10714Y6656D01*
X10725Y6649D01*
X10738Y6647D01*
X10775D01*
Y6610D01*
X10827D01*
Y6594D01*
X10776Y6544D01*
X10769Y6533D01*
X10767Y6520D01*
Y6489D01*
X10760Y6485D01*
X10748Y6467D01*
X10744Y6445D01*
X10748Y6423D01*
X10760Y6405D01*
X10778Y6393D01*
X10800Y6389D01*
X10822Y6393D01*
X10840Y6405D01*
X10845Y6412D01*
X10860D01*
X10865Y6405D01*
X10883Y6393D01*
X10905Y6389D01*
X10927Y6393D01*
X10945Y6405D01*
X10957Y6423D01*
X10961Y6445D01*
X10957Y6467D01*
X10945Y6485D01*
X10938Y6489D01*
Y6511D01*
X11014Y6586D01*
X11021Y6597D01*
X11023Y6610D01*
Y6790D01*
X11021Y6803D01*
X11014Y6814D01*
X10974Y6854D01*
X10963Y6861D01*
X10950Y6863D01*
X10945D01*
Y6897D01*
X10945Y6900D01*
X10945Y6910D01*
X10945Y6913D01*
Y7047D01*
X10945Y7060D01*
X10945Y7063D01*
Y7200D01*
X10775D01*
Y7063D01*
X10775Y7050D01*
X10775Y7047D01*
Y6913D01*
X10775Y6910D01*
X10775Y6900D01*
X10775Y6897D01*
Y6863D01*
X10699D01*
X10409Y7154D01*
X10398Y7161D01*
X10385Y7163D01*
X10086D01*
X9844Y7405D01*
X9849Y7417D01*
X9862D01*
Y7465D01*
X9805D01*
Y7462D01*
X9792Y7456D01*
X9785Y7461D01*
X9772Y7463D01*
X9753D01*
X9742Y7476D01*
X9743Y7480D01*
X9740Y7494D01*
X9733Y7505D01*
X9740Y7516D01*
X9743Y7530D01*
X9740Y7544D01*
X9733Y7555D01*
X9740Y7566D01*
X9743Y7580D01*
X9740Y7594D01*
X9733Y7605D01*
X9740Y7616D01*
X9743Y7630D01*
X9740Y7644D01*
X9733Y7655D01*
X9740Y7666D01*
X9743Y7680D01*
X9740Y7694D01*
X9733Y7705D01*
X9721Y7713D01*
X9711Y7715D01*
Y7747D01*
X9820D01*
Y7715D01*
X9842D01*
Y7682D01*
X9810D01*
Y7572D01*
X9940D01*
Y7594D01*
X9962D01*
Y7580D01*
X10112D01*
Y7680D01*
X9962D01*
Y7661D01*
X9940D01*
Y7682D01*
X9908D01*
Y7715D01*
X9930D01*
Y7845D01*
X9928D01*
Y7970D01*
X9903D01*
Y8150D01*
X9935D01*
Y8172D01*
X9955D01*
X9968Y8174D01*
X9979Y8181D01*
X10143Y8346D01*
X10155Y8350D01*
Y8350D01*
X10155Y8350D01*
X10285D01*
Y8376D01*
X10686D01*
X10756Y8306D01*
X10767Y8299D01*
X10775Y8298D01*
Y8263D01*
X10775Y8260D01*
Y8250D01*
X10775Y8247D01*
Y8113D01*
X10775Y8100D01*
X10775Y8097D01*
Y7963D01*
X10775Y7960D01*
X10775Y7950D01*
X10775Y7947D01*
Y7813D01*
X10775Y7810D01*
Y7800D01*
X10775Y7797D01*
Y7663D01*
X10775Y7660D01*
Y7650D01*
X10775Y7647D01*
Y7513D01*
X10775Y7510D01*
Y7500D01*
X10775Y7497D01*
Y7360D01*
X10945D01*
Y7497D01*
X10945Y7500D01*
Y7510D01*
X10945Y7513D01*
Y7647D01*
X10945Y7650D01*
Y7660D01*
X10945Y7663D01*
Y7797D01*
X10945Y7800D01*
Y7810D01*
X10945Y7813D01*
Y7947D01*
X10945Y7950D01*
X10945Y7960D01*
X10945Y7963D01*
Y8097D01*
X10945Y8110D01*
X10945Y8113D01*
Y8247D01*
X10945Y8250D01*
Y8260D01*
X10945Y8263D01*
X10945Y8394D01*
X10950Y8405D01*
X10950Y8410D01*
Y8467D01*
X10770D01*
Y8406D01*
X10760Y8397D01*
X10724Y8433D01*
X10713Y8441D01*
X10700Y8443D01*
X10285D01*
Y8460D01*
X10155D01*
Y8438D01*
X10142Y8436D01*
X10131Y8429D01*
X9948Y8245D01*
X9935Y8250D01*
Y8260D01*
X9805D01*
Y8150D01*
X9837D01*
Y7970D01*
X9818D01*
Y7840D01*
X9820D01*
Y7813D01*
X9631D01*
X9611Y7834D01*
X9600Y7841D01*
X9588Y7843D01*
X9538D01*
Y7885D01*
X9535Y7899D01*
X9528Y7910D01*
X9516Y7918D01*
X9503Y7921D01*
X9501Y7920D01*
X9488Y7931D01*
Y8154D01*
X9500Y8164D01*
X9500Y8164D01*
X9522Y8168D01*
X9540Y8180D01*
X9552Y8198D01*
X9554Y8207D01*
X9440D01*
X9431Y8198D01*
X9424Y8188D01*
X9421Y8175D01*
Y7929D01*
X9409Y7919D01*
X9403Y7921D01*
X9399Y7920D01*
X9386Y7930D01*
Y8354D01*
X9457Y8425D01*
X9530D01*
Y8555D01*
X9420D01*
Y8482D01*
X9329Y8391D01*
X9322Y8380D01*
X9321Y8377D01*
X9308D01*
X9305Y8394D01*
X9292Y8412D01*
X9274Y8425D01*
X9253Y8429D01*
X9231Y8425D01*
X9213Y8412D01*
X9200Y8394D01*
X9196Y8372D01*
X9200Y8351D01*
X9210Y8336D01*
X9210Y8335D01*
X9197Y8331D01*
X9171Y8356D01*
X9170Y8370D01*
X9182Y8388D01*
X9186Y8410D01*
X9182Y8432D01*
X9170Y8450D01*
X9152Y8462D01*
X9130Y8466D01*
X9108Y8462D01*
X9090Y8450D01*
X9078Y8432D01*
X9074Y8413D01*
X9072Y8412D01*
X9050Y8416D01*
X9028Y8412D01*
X9010Y8400D01*
X8998Y8383D01*
X8984Y8392D01*
X8962Y8396D01*
X8941Y8392D01*
X8923Y8380D01*
X8918Y8373D01*
X8870D01*
X8857Y8371D01*
X8846Y8364D01*
X8794Y8311D01*
X8787Y8300D01*
X8784Y8288D01*
Y8235D01*
X8762D01*
Y8105D01*
X8784D01*
Y8062D01*
X8787Y8050D01*
X8794Y8039D01*
X8919Y7914D01*
Y7897D01*
X8917Y7885D01*
Y7735D01*
X8919Y7723D01*
X8915Y7718D01*
X8910Y7713D01*
X8897Y7716D01*
X8747D01*
X8739Y7714D01*
X8726Y7722D01*
Y7845D01*
X8723Y7858D01*
X8716Y7869D01*
X8709Y7876D01*
Y7968D01*
X8715Y7972D01*
X8727Y7991D01*
X8732Y8012D01*
X8727Y8034D01*
X8715Y8052D01*
X8697Y8064D01*
X8675Y8069D01*
X8654Y8064D01*
X8635Y8052D01*
X8623Y8034D01*
X8619Y8012D01*
X8623Y7991D01*
X8635Y7972D01*
X8642Y7968D01*
Y7862D01*
X8644Y7850D01*
X8652Y7839D01*
X8653Y7837D01*
X8648Y7827D01*
X8636Y7826D01*
X8501Y7961D01*
Y8126D01*
X8507Y8130D01*
X8512Y8137D01*
X8612D01*
Y8105D01*
X8722D01*
Y8235D01*
X8612D01*
Y8203D01*
X8512D01*
X8507Y8210D01*
X8489Y8222D01*
X8468Y8226D01*
X8446Y8222D01*
X8428Y8210D01*
X8415Y8192D01*
X8411Y8170D01*
X8415Y8148D01*
X8428Y8130D01*
X8434Y8126D01*
Y7981D01*
X8305D01*
Y8001D01*
X8305Y8001D01*
X8305Y8001D01*
X8305Y8012D01*
X8305Y8016D01*
X8311Y8022D01*
X8312Y8024D01*
X8317Y8024D01*
X8334Y8028D01*
X8352Y8040D01*
X8365Y8058D01*
X8366Y8067D01*
X8259D01*
X8260Y8058D01*
X8273Y8040D01*
X8291Y8028D01*
X8297Y8027D01*
X8304Y8020D01*
X8303Y8017D01*
X8295Y8012D01*
X8292Y8012D01*
X8213D01*
Y8131D01*
X8242Y8160D01*
X8315D01*
Y8270D01*
X8185D01*
Y8197D01*
X8133D01*
Y8288D01*
X8155D01*
Y8418D01*
X8133D01*
Y8456D01*
X8142Y8465D01*
X8150Y8464D01*
X8172Y8468D01*
X8190Y8480D01*
X8202Y8498D01*
X8206Y8520D01*
X8202Y8542D01*
X8190Y8560D01*
X8172Y8572D01*
X8150Y8576D01*
D02*
G37*
G36*
X10345Y7338D02*
X10298D01*
Y7280D01*
X10345D01*
Y7338D01*
D02*
G37*
G36*
X10272D02*
X10225D01*
Y7280D01*
X10272D01*
Y7338D01*
D02*
G37*
G36*
X10338Y7845D02*
X10228D01*
Y7715D01*
X10249D01*
Y7680D01*
X10203D01*
Y7590D01*
X10197D01*
Y7548D01*
X10278D01*
Y7522D01*
X10197D01*
Y7480D01*
X10203D01*
Y7390D01*
X10353D01*
Y7407D01*
X10397D01*
Y7369D01*
X10390Y7365D01*
X10378Y7347D01*
X10374Y7325D01*
X10378Y7303D01*
X10390Y7285D01*
X10408Y7273D01*
X10430Y7269D01*
X10452Y7273D01*
X10470Y7285D01*
X10482Y7303D01*
X10486Y7325D01*
X10482Y7347D01*
X10470Y7365D01*
X10463Y7369D01*
Y7600D01*
X10461Y7613D01*
X10454Y7624D01*
X10424Y7654D01*
X10413Y7661D01*
X10400Y7663D01*
X10353D01*
Y7680D01*
X10316D01*
Y7715D01*
X10338D01*
Y7845D01*
D02*
G37*
G36*
X10112Y7490D02*
X9962D01*
Y7390D01*
X10004D01*
Y7312D01*
X10007Y7300D01*
X10014Y7289D01*
X10059Y7244D01*
X10070Y7237D01*
X10080Y7235D01*
Y7203D01*
X10190D01*
Y7332D01*
X10080D01*
X10071Y7341D01*
Y7390D01*
X10112D01*
Y7490D01*
D02*
G37*
G36*
X10345Y7255D02*
X10298D01*
Y7197D01*
X10345D01*
Y7255D01*
D02*
G37*
G36*
X10272D02*
X10225D01*
Y7197D01*
X10272D01*
Y7255D01*
D02*
G37*
G36*
X8038Y7162D02*
X7990D01*
Y7105D01*
X8038D01*
Y7162D01*
D02*
G37*
G36*
X7965D02*
X7917D01*
Y7105D01*
X7965D01*
Y7162D01*
D02*
G37*
G36*
X8048Y7068D02*
X7995D01*
Y7010D01*
X8048D01*
Y7068D01*
D02*
G37*
G36*
X7970D02*
X7917D01*
Y7010D01*
X7970D01*
Y7068D01*
D02*
G37*
G36*
X8048Y6985D02*
X7995D01*
Y6927D01*
X8048D01*
Y6985D01*
D02*
G37*
G36*
X7970D02*
X7917D01*
Y6927D01*
X7970D01*
Y6985D01*
D02*
G37*
G36*
X9845Y6980D02*
X9798D01*
Y6923D01*
X9845D01*
Y6980D01*
D02*
G37*
G36*
X9772D02*
X9725D01*
Y6923D01*
X9772D01*
Y6980D01*
D02*
G37*
G36*
X8445Y6940D02*
X8398D01*
Y6883D01*
X8445D01*
Y6940D01*
D02*
G37*
G36*
X8372D02*
X8325D01*
Y6883D01*
X8372D01*
Y6940D01*
D02*
G37*
G36*
X9845Y6897D02*
X9798D01*
Y6840D01*
X9845D01*
Y6897D01*
D02*
G37*
G36*
X9772D02*
X9725D01*
Y6840D01*
X9772D01*
Y6897D01*
D02*
G37*
G36*
X8445Y6857D02*
X8398D01*
Y6800D01*
X8445D01*
Y6857D01*
D02*
G37*
G36*
X8372D02*
X8325D01*
Y6800D01*
X8372D01*
Y6857D01*
D02*
G37*
G36*
X10493Y6684D02*
Y6643D01*
X10534D01*
X10532Y6652D01*
X10520Y6670D01*
X10502Y6682D01*
X10493Y6684D01*
D02*
G37*
G36*
X10467D02*
X10458Y6682D01*
X10440Y6670D01*
X10428Y6652D01*
X10426Y6643D01*
X10467D01*
Y6684D01*
D02*
G37*
G36*
X9223Y6658D02*
X9165D01*
Y6610D01*
X9223D01*
Y6658D01*
D02*
G37*
G36*
X9140D02*
X9082D01*
Y6610D01*
X9140D01*
Y6658D01*
D02*
G37*
G36*
X10534Y6617D02*
X10493D01*
Y6576D01*
X10502Y6578D01*
X10520Y6590D01*
X10532Y6608D01*
X10534Y6617D01*
D02*
G37*
G36*
X10467D02*
X10426D01*
X10428Y6608D01*
X10440Y6590D01*
X10458Y6578D01*
X10467Y6576D01*
Y6617D01*
D02*
G37*
G36*
X9223Y6585D02*
X9165D01*
Y6537D01*
X9223D01*
Y6585D01*
D02*
G37*
G36*
X9140D02*
X9082D01*
Y6537D01*
X9140D01*
Y6585D01*
D02*
G37*
G36*
X9065Y6585D02*
X9018D01*
Y6527D01*
X9065D01*
Y6585D01*
D02*
G37*
G36*
X8992D02*
X8945D01*
Y6527D01*
X8992D01*
Y6585D01*
D02*
G37*
G36*
X7745Y6864D02*
X7595D01*
Y6738D01*
X7614D01*
X7618Y6725D01*
X7612Y6721D01*
X7598Y6701D01*
X7593Y6676D01*
X7598Y6651D01*
X7612Y6631D01*
X7627Y6621D01*
Y6606D01*
X7612Y6596D01*
X7598Y6576D01*
X7593Y6551D01*
X7598Y6526D01*
X7612Y6506D01*
X7633Y6492D01*
X7657Y6487D01*
X7682D01*
X7707Y6492D01*
X7728Y6506D01*
X7742Y6526D01*
X7747Y6551D01*
X7742Y6576D01*
X7728Y6596D01*
X7713Y6606D01*
Y6621D01*
X7728Y6631D01*
X7742Y6651D01*
X7747Y6676D01*
X7742Y6701D01*
X7728Y6721D01*
X7722Y6725D01*
X7726Y6738D01*
X7745D01*
Y6864D01*
D02*
G37*
G36*
X10222Y6400D02*
X10196Y6397D01*
X10171Y6387D01*
X10150Y6371D01*
X10134Y6350D01*
X10124Y6325D01*
X10121Y6299D01*
X10124Y6273D01*
X10134Y6248D01*
X10150Y6227D01*
X10171Y6211D01*
X10196Y6201D01*
X10222Y6198D01*
X10248Y6201D01*
X10273Y6211D01*
X10294Y6227D01*
X10310Y6248D01*
X10320Y6273D01*
X10323Y6299D01*
X10320Y6325D01*
X10310Y6350D01*
X10294Y6371D01*
X10273Y6387D01*
X10248Y6397D01*
X10222Y6400D01*
D02*
G37*
G36*
X9460D02*
X9434Y6397D01*
X9409Y6387D01*
X9388Y6371D01*
X9372Y6350D01*
X9362Y6325D01*
X9359Y6299D01*
X9362Y6273D01*
X9372Y6248D01*
X9388Y6227D01*
X9409Y6211D01*
X9434Y6201D01*
X9460Y6198D01*
X9486Y6201D01*
X9511Y6211D01*
X9532Y6227D01*
X9548Y6248D01*
X9558Y6273D01*
X9561Y6299D01*
X9558Y6325D01*
X9548Y6350D01*
X9532Y6371D01*
X9511Y6387D01*
X9486Y6397D01*
X9460Y6400D01*
D02*
G37*
G36*
X9206D02*
X9180Y6397D01*
X9155Y6387D01*
X9134Y6371D01*
X9118Y6350D01*
X9108Y6325D01*
X9105Y6299D01*
X9108Y6273D01*
X9118Y6248D01*
X9134Y6227D01*
X9155Y6211D01*
X9180Y6201D01*
X9206Y6198D01*
X9232Y6201D01*
X9257Y6211D01*
X9278Y6227D01*
X9294Y6248D01*
X9304Y6273D01*
X9307Y6299D01*
X9304Y6325D01*
X9294Y6350D01*
X9278Y6371D01*
X9257Y6387D01*
X9232Y6397D01*
X9206Y6400D01*
D02*
G37*
G36*
X8698D02*
X8672Y6397D01*
X8647Y6387D01*
X8626Y6371D01*
X8610Y6350D01*
X8600Y6325D01*
X8597Y6299D01*
X8600Y6273D01*
X8610Y6248D01*
X8626Y6227D01*
X8647Y6211D01*
X8672Y6201D01*
X8698Y6198D01*
X8724Y6201D01*
X8749Y6211D01*
X8770Y6227D01*
X8786Y6248D01*
X8796Y6273D01*
X8799Y6299D01*
X8796Y6325D01*
X8786Y6350D01*
X8770Y6371D01*
X8749Y6387D01*
X8724Y6397D01*
X8698Y6400D01*
D02*
G37*
G36*
X8444D02*
X8418Y6397D01*
X8393Y6387D01*
X8372Y6371D01*
X8356Y6350D01*
X8346Y6325D01*
X8343Y6299D01*
X8346Y6273D01*
X8356Y6248D01*
X8372Y6227D01*
X8393Y6211D01*
X8418Y6201D01*
X8444Y6198D01*
X8470Y6201D01*
X8495Y6211D01*
X8516Y6227D01*
X8532Y6248D01*
X8542Y6273D01*
X8545Y6299D01*
X8542Y6325D01*
X8532Y6350D01*
X8516Y6371D01*
X8495Y6387D01*
X8470Y6397D01*
X8444Y6400D01*
D02*
G37*
G36*
X8190D02*
X8164Y6397D01*
X8139Y6387D01*
X8118Y6371D01*
X8102Y6350D01*
X8092Y6325D01*
X8089Y6299D01*
X8092Y6273D01*
X8102Y6248D01*
X8118Y6227D01*
X8139Y6211D01*
X8164Y6201D01*
X8190Y6198D01*
X8216Y6201D01*
X8241Y6211D01*
X8262Y6227D01*
X8278Y6248D01*
X8288Y6273D01*
X8291Y6299D01*
X8288Y6325D01*
X8278Y6350D01*
X8262Y6371D01*
X8241Y6387D01*
X8216Y6397D01*
X8190Y6400D01*
D02*
G37*
G36*
X9968Y6400D02*
X9942Y6397D01*
X9917Y6387D01*
X9896Y6371D01*
X9880Y6350D01*
X9870Y6325D01*
X9867Y6299D01*
X9870Y6273D01*
X9880Y6248D01*
X9896Y6227D01*
X9917Y6211D01*
X9942Y6201D01*
X9968Y6198D01*
X9994Y6201D01*
X10019Y6211D01*
X10040Y6227D01*
X10056Y6248D01*
X10066Y6273D01*
X10069Y6299D01*
X10066Y6325D01*
X10056Y6350D01*
X10040Y6371D01*
X10019Y6387D01*
X9994Y6397D01*
X9968Y6400D01*
D02*
G37*
G36*
X9714D02*
X9688Y6397D01*
X9663Y6387D01*
X9642Y6371D01*
X9626Y6350D01*
X9616Y6325D01*
X9613Y6299D01*
X9616Y6273D01*
X9626Y6248D01*
X9642Y6227D01*
X9663Y6211D01*
X9688Y6201D01*
X9714Y6198D01*
X9740Y6201D01*
X9765Y6211D01*
X9786Y6227D01*
X9802Y6248D01*
X9812Y6273D01*
X9815Y6299D01*
X9812Y6325D01*
X9802Y6350D01*
X9786Y6371D01*
X9765Y6387D01*
X9740Y6397D01*
X9714Y6400D01*
D02*
G37*
G36*
X8952D02*
X8926Y6397D01*
X8901Y6387D01*
X8880Y6371D01*
X8864Y6350D01*
X8854Y6325D01*
X8851Y6299D01*
X8854Y6273D01*
X8864Y6248D01*
X8880Y6227D01*
X8901Y6211D01*
X8926Y6201D01*
X8952Y6198D01*
X8978Y6201D01*
X9003Y6211D01*
X9024Y6227D01*
X9040Y6248D01*
X9050Y6273D01*
X9053Y6299D01*
X9050Y6325D01*
X9040Y6350D01*
X9024Y6371D01*
X9003Y6387D01*
X8978Y6397D01*
X8952Y6400D01*
D02*
G37*
G36*
X12245Y8550D02*
X12075D01*
Y8413D01*
X12075Y8410D01*
Y8400D01*
X12075Y8397D01*
Y8263D01*
X12075Y8260D01*
Y8250D01*
X12075Y8247D01*
Y8113D01*
X12075Y8110D01*
X12075Y8100D01*
X12075Y8097D01*
Y7963D01*
X12075Y7950D01*
X12075Y7947D01*
Y7813D01*
X12075Y7810D01*
Y7800D01*
X12075Y7797D01*
Y7663D01*
X12075Y7660D01*
Y7650D01*
X12075Y7647D01*
Y7513D01*
X12075Y7510D01*
Y7500D01*
X12075Y7497D01*
Y7363D01*
X12075Y7360D01*
Y7350D01*
X12075Y7347D01*
Y7213D01*
X12075Y7210D01*
Y7200D01*
X12075Y7197D01*
Y7063D01*
X12075Y7060D01*
X12075Y7050D01*
X12075Y7047D01*
Y6913D01*
X12075Y6900D01*
X12075Y6897D01*
Y6763D01*
X12075Y6760D01*
X12075Y6750D01*
X12075Y6747D01*
Y6610D01*
X12075Y6610D01*
X12075D01*
X12075Y6610D01*
X12072Y6598D01*
X12068Y6592D01*
X12064Y6570D01*
X12068Y6548D01*
X12080Y6530D01*
X12087Y6526D01*
Y6178D01*
X12080Y6173D01*
X12068Y6155D01*
X12064Y6134D01*
X12068Y6112D01*
X12080Y6094D01*
X12098Y6081D01*
X12120Y6077D01*
X12142Y6081D01*
X12160Y6094D01*
X12172Y6112D01*
X12176Y6134D01*
X12172Y6155D01*
X12160Y6173D01*
X12153Y6178D01*
Y6526D01*
X12160Y6530D01*
X12172Y6548D01*
X12176Y6570D01*
X12172Y6592D01*
X12168Y6597D01*
X12175Y6610D01*
X12245D01*
Y6747D01*
X12245Y6750D01*
X12245Y6760D01*
X12245Y6763D01*
Y6897D01*
X12245Y6910D01*
X12245Y6913D01*
Y7047D01*
X12245Y7050D01*
X12245Y7060D01*
X12245Y7063D01*
Y7197D01*
X12245Y7200D01*
Y7210D01*
X12245Y7213D01*
Y7347D01*
X12245Y7350D01*
Y7360D01*
X12245Y7363D01*
Y7497D01*
X12245Y7500D01*
Y7510D01*
X12245Y7513D01*
Y7647D01*
X12245Y7650D01*
Y7660D01*
X12245Y7663D01*
Y7797D01*
X12245Y7800D01*
Y7810D01*
X12245Y7813D01*
Y7947D01*
X12245Y7960D01*
X12245Y7963D01*
Y8097D01*
X12245Y8100D01*
X12245Y8110D01*
X12245Y8113D01*
Y8247D01*
X12245Y8250D01*
Y8260D01*
X12245Y8263D01*
Y8397D01*
X12245Y8400D01*
Y8410D01*
X12245Y8413D01*
Y8550D01*
D02*
G37*
G36*
X12347Y6151D02*
X12333Y6149D01*
X12309Y6139D01*
X12288Y6122D01*
X12271Y6101D01*
X12261Y6077D01*
X12259Y6063D01*
X12347D01*
Y6151D01*
D02*
G37*
G36*
X7673D02*
Y6063D01*
X7761D01*
X7759Y6077D01*
X7749Y6101D01*
X7732Y6122D01*
X7711Y6139D01*
X7687Y6149D01*
X7673Y6151D01*
D02*
G37*
G36*
X7647D02*
X7633Y6149D01*
X7609Y6139D01*
X7588Y6122D01*
X7571Y6101D01*
X7561Y6077D01*
X7559Y6063D01*
X7647D01*
Y6151D01*
D02*
G37*
G36*
X12347Y6037D02*
X12259D01*
X12261Y6023D01*
X12271Y5999D01*
X12288Y5978D01*
X12309Y5961D01*
X12333Y5951D01*
X12347Y5949D01*
Y6037D01*
D02*
G37*
G36*
X7761D02*
X7673D01*
Y5949D01*
X7687Y5951D01*
X7711Y5961D01*
X7732Y5978D01*
X7749Y5999D01*
X7759Y6023D01*
X7761Y6037D01*
D02*
G37*
G36*
X7647D02*
X7559D01*
X7561Y6023D01*
X7571Y5999D01*
X7588Y5978D01*
X7609Y5961D01*
X7633Y5951D01*
X7647Y5949D01*
Y6037D01*
D02*
G37*
G36*
X8290Y6145D02*
X8090D01*
Y5945D01*
X8290D01*
Y6145D01*
D02*
G37*
G36*
X8952Y6146D02*
X8926Y6143D01*
X8901Y6133D01*
X8880Y6117D01*
X8864Y6096D01*
X8854Y6071D01*
X8851Y6045D01*
X8854Y6019D01*
X8864Y5994D01*
X8880Y5973D01*
X8901Y5957D01*
X8926Y5947D01*
X8952Y5944D01*
X8978Y5947D01*
X9003Y5957D01*
X9024Y5973D01*
X9040Y5994D01*
X9050Y6019D01*
X9053Y6045D01*
X9050Y6071D01*
X9040Y6096D01*
X9024Y6117D01*
X9003Y6133D01*
X8978Y6143D01*
X8952Y6146D01*
D02*
G37*
G36*
X10222Y6146D02*
X10196Y6143D01*
X10171Y6133D01*
X10150Y6117D01*
X10134Y6096D01*
X10124Y6071D01*
X10121Y6045D01*
X10124Y6019D01*
X10134Y5994D01*
X10150Y5973D01*
X10171Y5957D01*
X10196Y5947D01*
X10222Y5944D01*
X10248Y5947D01*
X10273Y5957D01*
X10294Y5973D01*
X10310Y5994D01*
X10320Y6019D01*
X10323Y6045D01*
X10320Y6071D01*
X10310Y6096D01*
X10294Y6117D01*
X10273Y6133D01*
X10248Y6143D01*
X10222Y6146D01*
D02*
G37*
G36*
X9968D02*
X9942Y6143D01*
X9917Y6133D01*
X9896Y6117D01*
X9880Y6096D01*
X9870Y6071D01*
X9867Y6045D01*
X9870Y6019D01*
X9880Y5994D01*
X9896Y5973D01*
X9917Y5957D01*
X9942Y5947D01*
X9968Y5944D01*
X9994Y5947D01*
X10019Y5957D01*
X10040Y5973D01*
X10056Y5994D01*
X10066Y6019D01*
X10069Y6045D01*
X10066Y6071D01*
X10056Y6096D01*
X10040Y6117D01*
X10019Y6133D01*
X9994Y6143D01*
X9968Y6146D01*
D02*
G37*
G36*
X9714D02*
X9688Y6143D01*
X9663Y6133D01*
X9642Y6117D01*
X9626Y6096D01*
X9616Y6071D01*
X9613Y6045D01*
X9616Y6019D01*
X9626Y5994D01*
X9642Y5973D01*
X9663Y5957D01*
X9688Y5947D01*
X9714Y5944D01*
X9740Y5947D01*
X9765Y5957D01*
X9786Y5973D01*
X9802Y5994D01*
X9812Y6019D01*
X9815Y6045D01*
X9812Y6071D01*
X9802Y6096D01*
X9786Y6117D01*
X9765Y6133D01*
X9740Y6143D01*
X9714Y6146D01*
D02*
G37*
G36*
X9460D02*
X9434Y6143D01*
X9409Y6133D01*
X9388Y6117D01*
X9372Y6096D01*
X9362Y6071D01*
X9359Y6045D01*
X9362Y6019D01*
X9372Y5994D01*
X9388Y5973D01*
X9409Y5957D01*
X9434Y5947D01*
X9460Y5944D01*
X9486Y5947D01*
X9511Y5957D01*
X9532Y5973D01*
X9548Y5994D01*
X9558Y6019D01*
X9561Y6045D01*
X9558Y6071D01*
X9548Y6096D01*
X9532Y6117D01*
X9511Y6133D01*
X9486Y6143D01*
X9460Y6146D01*
D02*
G37*
G36*
X9206D02*
X9180Y6143D01*
X9155Y6133D01*
X9134Y6117D01*
X9118Y6096D01*
X9108Y6071D01*
X9105Y6045D01*
X9108Y6019D01*
X9118Y5994D01*
X9134Y5973D01*
X9155Y5957D01*
X9180Y5947D01*
X9206Y5944D01*
X9232Y5947D01*
X9257Y5957D01*
X9278Y5973D01*
X9294Y5994D01*
X9304Y6019D01*
X9307Y6045D01*
X9304Y6071D01*
X9294Y6096D01*
X9278Y6117D01*
X9257Y6133D01*
X9232Y6143D01*
X9206Y6146D01*
D02*
G37*
G36*
X8698D02*
X8672Y6143D01*
X8647Y6133D01*
X8626Y6117D01*
X8610Y6096D01*
X8600Y6071D01*
X8597Y6045D01*
X8600Y6019D01*
X8610Y5994D01*
X8626Y5973D01*
X8647Y5957D01*
X8672Y5947D01*
X8698Y5944D01*
X8724Y5947D01*
X8749Y5957D01*
X8770Y5973D01*
X8786Y5994D01*
X8796Y6019D01*
X8799Y6045D01*
X8796Y6071D01*
X8786Y6096D01*
X8770Y6117D01*
X8749Y6133D01*
X8724Y6143D01*
X8698Y6146D01*
D02*
G37*
G36*
X8444D02*
X8418Y6143D01*
X8393Y6133D01*
X8372Y6117D01*
X8356Y6096D01*
X8346Y6071D01*
X8343Y6045D01*
X8346Y6019D01*
X8356Y5994D01*
X8372Y5973D01*
X8393Y5957D01*
X8418Y5947D01*
X8444Y5944D01*
X8470Y5947D01*
X8495Y5957D01*
X8516Y5973D01*
X8532Y5994D01*
X8542Y6019D01*
X8545Y6045D01*
X8542Y6071D01*
X8532Y6096D01*
X8516Y6117D01*
X8495Y6133D01*
X8470Y6143D01*
X8444Y6146D01*
D02*
G37*
%LPD*%
G36*
X9465Y7687D02*
X9469Y7684D01*
Y7554D01*
X9398Y7483D01*
X9144D01*
X9140Y7490D01*
X9122Y7502D01*
X9100Y7506D01*
X9078Y7502D01*
X9060Y7490D01*
X9048Y7472D01*
X9044Y7450D01*
X9048Y7428D01*
X9060Y7410D01*
X9078Y7398D01*
X9100Y7394D01*
X9122Y7398D01*
X9140Y7410D01*
X9144Y7417D01*
X9379D01*
Y7163D01*
X8962D01*
X8950Y7161D01*
X8947Y7159D01*
X8931Y7162D01*
X8929Y7165D01*
X8930Y7166D01*
X8933Y7180D01*
X8930Y7194D01*
X8923Y7205D01*
X8930Y7216D01*
X8933Y7230D01*
X8930Y7244D01*
X8923Y7255D01*
X8930Y7266D01*
X8933Y7280D01*
X8930Y7294D01*
X8923Y7305D01*
X8930Y7316D01*
X8933Y7330D01*
X8930Y7344D01*
X8923Y7355D01*
X8930Y7366D01*
X8933Y7380D01*
X8930Y7394D01*
X8923Y7405D01*
X8930Y7416D01*
X8933Y7430D01*
X8930Y7444D01*
X8926Y7450D01*
X8927Y7451D01*
X8936Y7464D01*
X8936Y7467D01*
X8822D01*
Y7493D01*
X8936D01*
X8936Y7496D01*
X8927Y7509D01*
X8926Y7510D01*
X8930Y7516D01*
X8933Y7530D01*
X8930Y7544D01*
X8923Y7555D01*
X8930Y7566D01*
X8933Y7580D01*
X8930Y7594D01*
X8923Y7605D01*
X8930Y7616D01*
X8933Y7630D01*
X8930Y7644D01*
X8923Y7655D01*
X8930Y7666D01*
X8933Y7680D01*
X8931Y7692D01*
X8935Y7697D01*
X8940Y7702D01*
X8953Y7699D01*
X8956Y7700D01*
X8969Y7690D01*
Y7668D01*
X8972Y7655D01*
X8979Y7644D01*
X9071Y7551D01*
X9082Y7544D01*
X9095Y7542D01*
X9281D01*
X9285Y7535D01*
X9303Y7523D01*
X9325Y7519D01*
X9347Y7523D01*
X9365Y7535D01*
X9377Y7553D01*
X9381Y7575D01*
X9377Y7597D01*
X9365Y7615D01*
X9347Y7627D01*
X9325Y7631D01*
X9303Y7627D01*
X9285Y7615D01*
X9281Y7608D01*
X9109D01*
X9039Y7679D01*
X9039Y7692D01*
X9049Y7700D01*
X9053Y7699D01*
X9066Y7702D01*
X9078Y7710D01*
X9089Y7702D01*
X9103Y7699D01*
X9116Y7702D01*
X9128Y7710D01*
X9139Y7702D01*
X9153Y7699D01*
X9166Y7702D01*
X9178Y7710D01*
X9189Y7702D01*
X9203Y7699D01*
X9216Y7702D01*
X9228Y7710D01*
X9239Y7702D01*
X9253Y7699D01*
X9266Y7702D01*
X9278Y7710D01*
X9289Y7702D01*
X9303Y7699D01*
X9316Y7702D01*
X9328Y7710D01*
X9339Y7702D01*
X9353Y7699D01*
X9366Y7702D01*
X9378Y7710D01*
X9389Y7702D01*
X9403Y7699D01*
X9416Y7702D01*
X9423Y7707D01*
X9423Y7706D01*
X9437Y7697D01*
X9440Y7696D01*
Y7810D01*
X9465D01*
Y7687D01*
D02*
G37*
D12*
X9875Y7628D02*
D03*
Y7478D02*
D03*
X8435Y7372D02*
D03*
Y7522D02*
D03*
X9153Y6597D02*
D03*
Y6747D02*
D03*
X7970Y7957D02*
D03*
Y7807D02*
D03*
X8612Y7532D02*
D03*
Y7682D02*
D03*
X10220Y8405D02*
D03*
Y8555D02*
D03*
X9870Y8205D02*
D03*
Y8355D02*
D03*
X8250Y8365D02*
D03*
Y8215D02*
D03*
D13*
X7982Y6997D02*
D03*
X8122D02*
D03*
D19*
X10282Y7780D02*
D03*
X10132D02*
D03*
X10135Y7268D02*
D03*
X10285D02*
D03*
X9875Y7780D02*
D03*
X10025D02*
D03*
X8535Y6870D02*
D03*
X8385D02*
D03*
X9635Y6910D02*
D03*
X9785D02*
D03*
X8855Y6597D02*
D03*
X9005D02*
D03*
X9872Y7905D02*
D03*
X9722D02*
D03*
X7978Y7175D02*
D03*
X8128D02*
D03*
X7950Y8353D02*
D03*
X8100D02*
D03*
X8818Y8170D02*
D03*
X8668D02*
D03*
X8250Y7947D02*
D03*
X8100D02*
D03*
X8578Y7180D02*
D03*
X8428D02*
D03*
X10505Y8550D02*
D03*
X10355D02*
D03*
X10020Y8480D02*
D03*
X9870D02*
D03*
X9625Y8490D02*
D03*
X9475D02*
D03*
D29*
X10430Y8050D02*
D03*
X10130D02*
D03*
D30*
X11730Y8140D02*
Y8300D01*
X10155Y8405D02*
X10220D01*
X9955Y8205D02*
X10155Y8405D01*
X9870Y8205D02*
X9955D01*
X9028Y8655D02*
X9355D01*
X8738Y8365D02*
X9028Y8655D01*
X8250Y8365D02*
X8738D01*
X9625Y8490D02*
X9770D01*
X9353Y8368D02*
X9475Y8490D01*
X8180Y8145D02*
X8250Y8215D01*
X8180Y7890D02*
Y8145D01*
X8217Y7853D02*
X8295D01*
X8525Y7496D02*
Y7558D01*
X8276Y7807D02*
X8525Y7558D01*
X7970Y7807D02*
X8276D01*
X8295Y7853D02*
X8548Y7600D01*
X8673D01*
X8180Y7890D02*
X8217Y7853D01*
X8090Y7957D02*
X8100Y7947D01*
X7970Y7957D02*
X8090D01*
X8673Y7600D02*
X8693Y7580D01*
X8822D01*
X8338Y7522D02*
X8435D01*
X8250Y7610D02*
X8338Y7522D01*
X8130Y7610D02*
X8250D01*
X8525Y7496D02*
X8528D01*
X9760Y6690D02*
X10204D01*
X10374Y6520D01*
X10662D01*
X10517Y6313D02*
X10600D01*
X10190Y6640D02*
X10517Y6313D01*
X9746Y6640D02*
X10190D01*
X9635Y6815D02*
X9760Y6690D01*
X9503Y6883D02*
X9746Y6640D01*
X9503Y6883D02*
Y7000D01*
X9635Y6815D02*
Y6910D01*
X8100Y7947D02*
Y8353D01*
X8612Y7682D02*
Y7803D01*
X8468Y7947D02*
X8612Y7803D01*
X8675Y7862D02*
Y8012D01*
X8468Y7947D02*
Y8170D01*
X8250Y7947D02*
X8468D01*
X8428Y7107D02*
Y7180D01*
X8318Y6997D02*
X8428Y7107D01*
X8122Y6997D02*
X8318D01*
X8128Y7175D02*
Y7270D01*
X7970D02*
X8128D01*
X7970D02*
Y7390D01*
X8335Y7275D02*
X8562D01*
X8235Y7175D02*
X8335Y7275D01*
X8128Y7175D02*
X8235D01*
X8432Y7370D02*
X8435Y7372D01*
X8270Y7370D02*
X8432D01*
X8250Y7390D02*
X8270Y7370D01*
X8130Y7390D02*
X8250D01*
X10700Y8410D02*
X10780Y8330D01*
X10225Y8410D02*
X10700D01*
X10220Y8405D02*
X10225Y8410D01*
X10780Y8330D02*
X10838D01*
X10838Y8330D01*
X8870Y8340D02*
X8962D01*
X8818Y8288D02*
X8870Y8340D01*
X8818Y8170D02*
Y8288D01*
X10300Y7010D02*
X10590Y6720D01*
X10060Y7010D02*
X10300D01*
X9840Y7230D02*
X10060Y7010D01*
X9632Y7380D02*
X9754D01*
X10064Y7070D01*
X10347D01*
X9632Y7230D02*
X9840D01*
X10072Y7130D02*
X10385D01*
X9772Y7430D02*
X10072Y7130D01*
X9632Y7430D02*
X9772D01*
X10347Y7070D02*
X10738Y6680D01*
X10385Y7130D02*
X10685Y6830D01*
X9153Y6747D02*
Y7000D01*
X9153Y6747D02*
X9153Y6747D01*
X9003Y6600D02*
Y7000D01*
X8953Y6828D02*
Y7000D01*
X8855Y6730D02*
X8953Y6828D01*
X8855Y6597D02*
Y6730D01*
X8535Y6870D02*
Y6980D01*
X8685Y7130D01*
X8822D01*
X8578Y7180D02*
X8822D01*
X8562Y7275D02*
X8618Y7330D01*
X8822D01*
X8435Y7522D02*
X8578Y7380D01*
X8822D01*
X8468Y8170D02*
X8668D01*
X8953Y7810D02*
Y7928D01*
X8818Y8062D02*
X8953Y7928D01*
X8818Y8062D02*
Y8170D01*
X9053Y7810D02*
Y7910D01*
X9003Y7960D02*
X9053Y7910D01*
X9003Y7960D02*
Y8020D01*
X9103Y7810D02*
Y7982D01*
X9100Y7985D02*
X9103Y7982D01*
X9003Y7703D02*
Y7810D01*
X8820Y7432D02*
X8822Y7430D01*
X8591Y7432D02*
X8820D01*
X8528Y7496D02*
X8591Y7432D01*
X8707Y7630D02*
X8822D01*
X8693Y7645D02*
X8707Y7630D01*
X8693Y7645D02*
Y7845D01*
X8675Y7862D02*
X8693Y7845D01*
X8615Y7530D02*
X8822D01*
X8612Y7532D02*
X8615Y7530D01*
X9153Y7810D02*
Y7940D01*
X9178Y7965D01*
X10038Y7312D02*
Y7440D01*
X10738Y6680D02*
X10860D01*
X10685Y6830D02*
X10860D01*
X9875Y7628D02*
X10035D01*
X9875Y7628D02*
Y7780D01*
X9872Y7782D02*
Y7905D01*
Y7782D02*
X9875Y7780D01*
X10282Y7635D02*
Y7780D01*
X10278Y7630D02*
X10282Y7635D01*
X10038Y7312D02*
X10082Y7268D01*
X10135D01*
X9618Y7780D02*
X9875D01*
X9588Y7810D02*
X9618Y7780D01*
X9503Y7810D02*
X9588D01*
X8100Y8353D02*
Y8470D01*
X8150Y8520D01*
X8893Y7060D02*
X8962Y7130D01*
X8822D02*
X8893Y7060D01*
X8953Y7000D01*
X9412Y7131D02*
Y7450D01*
X8962Y7130D02*
X9632D01*
X9050Y8360D02*
X9178Y8232D01*
Y7965D02*
Y8232D01*
X9303Y7810D02*
Y8266D01*
X9253Y8316D02*
Y8372D01*
Y8316D02*
X9303Y8266D01*
X9130Y8350D02*
Y8410D01*
Y8350D02*
X9253Y8228D01*
Y7810D02*
Y8228D01*
X9353Y7810D02*
Y8368D01*
X9453Y7810D02*
X9455Y7812D01*
Y8175D01*
X9500Y8220D01*
X9355Y8655D02*
X10120D01*
X9870Y7907D02*
Y8205D01*
Y8355D02*
Y8480D01*
X10120Y8655D02*
X10220Y8555D01*
X10350D01*
X9770Y8490D02*
X9860D01*
X9870Y8480D01*
X10278Y7630D02*
X10400D01*
X10430Y7600D01*
Y7325D02*
Y7600D01*
X10278Y7440D02*
X10430D01*
X9635Y6910D02*
Y7128D01*
X9632Y7130D02*
X9635Y7128D01*
X9100Y7450D02*
X9412D01*
X9503Y7541D01*
Y7810D01*
X9003Y7668D02*
Y7703D01*
Y7668D02*
X9095Y7575D01*
X9325D01*
X10430Y8050D02*
X10532D01*
X10600Y8118D01*
X10860Y6830D02*
X10950D01*
X10990Y6790D01*
X10860Y6580D02*
Y6680D01*
X10990Y6610D02*
Y6790D01*
X10600Y6062D02*
X10662D01*
X10800Y6520D02*
X10860Y6580D01*
X10905Y6525D02*
X10990Y6610D01*
X10905Y6445D02*
Y6525D01*
X10800Y6450D02*
Y6520D01*
X10662Y6062D02*
X10690Y6090D01*
Y6493D01*
X10662Y6520D02*
X10690Y6493D01*
X12120Y6134D02*
Y6570D01*
D32*
X10180Y8050D02*
X10380D01*
D33*
X7670Y6551D02*
D03*
Y6676D02*
D03*
X10600Y6062D02*
D03*
Y6187D02*
D03*
Y6313D02*
D03*
D34*
X7670Y6801D02*
D03*
X10600Y6438D02*
D03*
D35*
X7660Y6050D02*
D03*
Y8650D02*
D03*
X12360D02*
D03*
Y6050D02*
D03*
D36*
X8190Y6299D02*
D03*
X8444Y6045D02*
D03*
Y6299D02*
D03*
X8698Y6045D02*
D03*
Y6299D02*
D03*
X8952Y6045D02*
D03*
Y6299D02*
D03*
X9206Y6045D02*
D03*
Y6299D02*
D03*
X9460Y6045D02*
D03*
Y6299D02*
D03*
X9714Y6045D02*
D03*
Y6299D02*
D03*
X9968Y6045D02*
D03*
X9968Y6299D02*
D03*
X10222Y6045D02*
D03*
Y6299D02*
D03*
D37*
X8190Y6045D02*
D03*
D38*
X10600Y8118D02*
D03*
D39*
Y8242D02*
D03*
D40*
X11730Y8140D02*
D03*
X8540Y8520D02*
D03*
X8675Y8012D02*
D03*
X9253Y8372D02*
D03*
X8962Y8340D02*
D03*
X10480Y6630D02*
D03*
X10590Y6720D02*
D03*
X8150Y8520D02*
D03*
X8312Y8080D02*
D03*
X8468Y8170D02*
D03*
X9325Y7575D02*
D03*
X9003Y8020D02*
D03*
X9100Y7985D02*
D03*
X7950Y8172D02*
D03*
X9130Y8410D02*
D03*
X9050Y8360D02*
D03*
X9500Y8220D02*
D03*
X9355Y8655D02*
D03*
X9770Y8490D02*
D03*
X10650Y8520D02*
D03*
X10430Y7325D02*
D03*
X9100Y7450D02*
D03*
X11730Y8300D02*
D03*
X12120Y6570D02*
D03*
X10905Y6445D02*
D03*
X10800D02*
D03*
X12120Y6134D02*
D03*
D41*
X7970Y7390D02*
D03*
Y7610D02*
D03*
X8130D02*
D03*
Y7390D02*
D03*
D42*
X10038Y7630D02*
D03*
X10038Y7440D02*
D03*
X10278Y7440D02*
D03*
Y7535D02*
D03*
Y7630D02*
D03*
D43*
X8822Y7130D02*
D03*
Y7180D02*
D03*
Y7230D02*
D03*
Y7280D02*
D03*
Y7330D02*
D03*
Y7380D02*
D03*
Y7430D02*
D03*
Y7480D02*
D03*
Y7530D02*
D03*
Y7580D02*
D03*
Y7630D02*
D03*
Y7680D02*
D03*
X9632D02*
D03*
Y7630D02*
D03*
Y7580D02*
D03*
Y7530D02*
D03*
Y7480D02*
D03*
Y7430D02*
D03*
Y7380D02*
D03*
Y7330D02*
D03*
Y7280D02*
D03*
Y7230D02*
D03*
Y7180D02*
D03*
Y7130D02*
D03*
D44*
X8953Y7810D02*
D03*
X9003D02*
D03*
X9053D02*
D03*
X9103D02*
D03*
X9153D02*
D03*
X9203D02*
D03*
X9253D02*
D03*
X9303D02*
D03*
X9353D02*
D03*
X9403D02*
D03*
X9453D02*
D03*
X9503D02*
D03*
Y7000D02*
D03*
X9453D02*
D03*
X9403D02*
D03*
X9353D02*
D03*
X9303D02*
D03*
X9253D02*
D03*
X9203D02*
D03*
X9153D02*
D03*
X9103D02*
D03*
X9053D02*
D03*
X9003D02*
D03*
X8953D02*
D03*
D45*
X12160Y8480D02*
D03*
Y8330D02*
D03*
Y8180D02*
D03*
X12160Y8030D02*
D03*
X12160Y7880D02*
D03*
Y7730D02*
D03*
Y7580D02*
D03*
Y7430D02*
D03*
Y7280D02*
D03*
Y7130D02*
D03*
X12160Y6980D02*
D03*
X12160Y6830D02*
D03*
X12160Y6680D02*
D03*
X10860D02*
D03*
X10860Y6830D02*
D03*
X10860Y6980D02*
D03*
X10860Y7130D02*
D03*
Y7430D02*
D03*
Y7580D02*
D03*
Y7730D02*
D03*
Y7880D02*
D03*
X10860Y8030D02*
D03*
X10860Y8180D02*
D03*
Y8330D02*
D03*
Y8480D02*
D03*
M02*
