G04 Layer_Color=16711935*
%FSLAX42Y42*%
%MOMM*%
G71*
G01*
G75*
%ADD54R,1.10X0.90*%
%ADD55R,1.00X1.10*%
%ADD61R,0.90X1.10*%
%ADD71R,1.50X1.70*%
%ADD72O,1.20X0.95*%
%ADD73R,1.20X0.95*%
%ADD74C,1.73*%
%ADD75C,1.70*%
%ADD76R,1.70X1.70*%
%ADD77O,1.70X1.20*%
%ADD78R,1.70X1.20*%
%ADD79C,0.80*%
%ADD80R,1.35X1.60*%
%ADD81R,1.30X0.80*%
%ADD82O,2.00X0.50*%
%ADD83O,0.50X2.00*%
%ADD84R,1.50X1.20*%
D54*
X9875Y7628D02*
D03*
Y7478D02*
D03*
X8435Y7372D02*
D03*
Y7522D02*
D03*
X9153Y6597D02*
D03*
Y6747D02*
D03*
X7970Y7957D02*
D03*
Y7807D02*
D03*
X8612Y7532D02*
D03*
Y7682D02*
D03*
X10220Y8405D02*
D03*
Y8555D02*
D03*
X9870Y8205D02*
D03*
Y8355D02*
D03*
X8250Y8365D02*
D03*
Y8215D02*
D03*
D55*
X7982Y6997D02*
D03*
X8122D02*
D03*
D61*
X10282Y7780D02*
D03*
X10132D02*
D03*
X10135Y7268D02*
D03*
X10285D02*
D03*
X9875Y7780D02*
D03*
X10025D02*
D03*
X8535Y6870D02*
D03*
X8385D02*
D03*
X9635Y6910D02*
D03*
X9785D02*
D03*
X8855Y6597D02*
D03*
X9005D02*
D03*
X9872Y7905D02*
D03*
X9722D02*
D03*
X7978Y7175D02*
D03*
X8128D02*
D03*
X7950Y8353D02*
D03*
X8100D02*
D03*
X8818Y8170D02*
D03*
X8668D02*
D03*
X8250Y7947D02*
D03*
X8100D02*
D03*
X8578Y7180D02*
D03*
X8428D02*
D03*
X10505Y8550D02*
D03*
X10355D02*
D03*
X10020Y8480D02*
D03*
X9870D02*
D03*
X9625Y8490D02*
D03*
X9475D02*
D03*
D71*
X10430Y8050D02*
D03*
X10130D02*
D03*
D72*
X7670Y6551D02*
D03*
Y6676D02*
D03*
X10600Y6062D02*
D03*
Y6187D02*
D03*
Y6313D02*
D03*
D73*
X7670Y6801D02*
D03*
X10600Y6438D02*
D03*
D74*
X7660Y6050D02*
D03*
Y8650D02*
D03*
X12360D02*
D03*
Y6050D02*
D03*
D75*
X8190Y6299D02*
D03*
X8444Y6045D02*
D03*
Y6299D02*
D03*
X8698Y6045D02*
D03*
Y6299D02*
D03*
X8952Y6045D02*
D03*
Y6299D02*
D03*
X9206Y6045D02*
D03*
Y6299D02*
D03*
X9460Y6045D02*
D03*
Y6299D02*
D03*
X9714Y6045D02*
D03*
Y6299D02*
D03*
X9968Y6045D02*
D03*
X9968Y6299D02*
D03*
X10222Y6045D02*
D03*
Y6299D02*
D03*
D76*
X8190Y6045D02*
D03*
D77*
X10600Y8118D02*
D03*
D78*
Y8242D02*
D03*
D79*
X11730Y8140D02*
D03*
X8540Y8520D02*
D03*
X8675Y8012D02*
D03*
X9253Y8372D02*
D03*
X8962Y8340D02*
D03*
X10480Y6630D02*
D03*
X10590Y6720D02*
D03*
X8150Y8520D02*
D03*
X8312Y8080D02*
D03*
X8468Y8170D02*
D03*
X9325Y7575D02*
D03*
X9003Y8020D02*
D03*
X9100Y7985D02*
D03*
X7950Y8172D02*
D03*
X9130Y8410D02*
D03*
X9050Y8360D02*
D03*
X9500Y8220D02*
D03*
X9355Y8655D02*
D03*
X9770Y8490D02*
D03*
X10650Y8520D02*
D03*
X10430Y7325D02*
D03*
X9100Y7450D02*
D03*
X11730Y8300D02*
D03*
X12120Y6570D02*
D03*
X10905Y6445D02*
D03*
X10800D02*
D03*
X12120Y6134D02*
D03*
D80*
X7970Y7390D02*
D03*
Y7610D02*
D03*
X8130D02*
D03*
Y7390D02*
D03*
D81*
X10038Y7630D02*
D03*
X10038Y7440D02*
D03*
X10278Y7440D02*
D03*
Y7535D02*
D03*
Y7630D02*
D03*
D82*
X8822Y7130D02*
D03*
Y7180D02*
D03*
Y7230D02*
D03*
Y7280D02*
D03*
Y7330D02*
D03*
Y7380D02*
D03*
Y7430D02*
D03*
Y7480D02*
D03*
Y7530D02*
D03*
Y7580D02*
D03*
Y7630D02*
D03*
Y7680D02*
D03*
X9632D02*
D03*
Y7630D02*
D03*
Y7580D02*
D03*
Y7530D02*
D03*
Y7480D02*
D03*
Y7430D02*
D03*
Y7380D02*
D03*
Y7330D02*
D03*
Y7280D02*
D03*
Y7230D02*
D03*
Y7180D02*
D03*
Y7130D02*
D03*
D83*
X8953Y7810D02*
D03*
X9003D02*
D03*
X9053D02*
D03*
X9103D02*
D03*
X9153D02*
D03*
X9203D02*
D03*
X9253D02*
D03*
X9303D02*
D03*
X9353D02*
D03*
X9403D02*
D03*
X9453D02*
D03*
X9503D02*
D03*
Y7000D02*
D03*
X9453D02*
D03*
X9403D02*
D03*
X9353D02*
D03*
X9303D02*
D03*
X9253D02*
D03*
X9203D02*
D03*
X9153D02*
D03*
X9103D02*
D03*
X9053D02*
D03*
X9003D02*
D03*
X8953D02*
D03*
D84*
X12160Y8480D02*
D03*
Y8330D02*
D03*
Y8180D02*
D03*
X12160Y8030D02*
D03*
X12160Y7880D02*
D03*
Y7730D02*
D03*
Y7580D02*
D03*
Y7430D02*
D03*
Y7280D02*
D03*
Y7130D02*
D03*
X12160Y6980D02*
D03*
X12160Y6830D02*
D03*
X12160Y6680D02*
D03*
X10860D02*
D03*
X10860Y6830D02*
D03*
X10860Y6980D02*
D03*
X10860Y7130D02*
D03*
Y7430D02*
D03*
Y7580D02*
D03*
Y7730D02*
D03*
Y7880D02*
D03*
X10860Y8030D02*
D03*
X10860Y8180D02*
D03*
Y8330D02*
D03*
Y8480D02*
D03*
M02*
