G04 Layer_Color=8454143*
%FSLAX42Y42*%
%MOMM*%
G71*
G01*
G75*
%ADD30C,0.25*%
%ADD31C,0.20*%
%ADD47C,0.10*%
%ADD48C,0.25*%
%ADD51C,0.13*%
%ADD85C,0.38*%
D30*
X12110Y6035D02*
Y6485D01*
X11922Y6035D02*
X12110D01*
X11922D02*
Y6372D01*
X11735D02*
X11922D01*
X11735Y6035D02*
Y6372D01*
X11547Y6035D02*
X11735D01*
X11547D02*
Y6372D01*
X11360D02*
X11547D01*
X11360Y6035D02*
Y6372D01*
X11172Y6035D02*
X11360D01*
X11172D02*
Y6372D01*
X10985D02*
X11172D01*
X10985Y6035D02*
Y6372D01*
X10911Y6035D02*
X10985D01*
X11957Y8542D02*
X11804D01*
X11855Y8491D01*
X11804Y8441D01*
X11957D01*
X11804Y8390D02*
Y8339D01*
Y8364D01*
X11906D01*
Y8390D01*
Y8263D02*
X11804D01*
X11855D01*
X11880Y8237D01*
X11906Y8212D01*
Y8187D01*
X11804Y8034D02*
Y8085D01*
X11830Y8110D01*
X11880D01*
X11906Y8085D01*
Y8034D01*
X11880Y8009D01*
X11855D01*
Y8110D01*
X11804Y7857D02*
X11906Y7958D01*
X11957Y7806D02*
X11804D01*
X11855Y7755D01*
X11804Y7704D01*
X11957D01*
X11804Y7653D02*
Y7603D01*
Y7628D01*
X11906D01*
Y7653D01*
Y7526D02*
X11804D01*
X11855D01*
X11880Y7501D01*
X11906Y7476D01*
Y7450D01*
X11804Y7298D02*
Y7349D01*
X11830Y7374D01*
X11880D01*
X11906Y7349D01*
Y7298D01*
X11880Y7273D01*
X11855D01*
Y7374D01*
X11804Y7222D02*
Y7171D01*
Y7196D01*
X11957D01*
Y7222D01*
X11804Y7019D02*
Y7069D01*
X11830Y7095D01*
X11880D01*
X11906Y7069D01*
Y7019D01*
X11880Y6993D01*
X11855D01*
Y7095D01*
X11804Y6942D02*
Y6866D01*
X11830Y6841D01*
X11855Y6866D01*
Y6917D01*
X11880Y6942D01*
X11906Y6917D01*
Y6841D01*
X11560Y8542D02*
X11713D01*
X11560Y8441D01*
X11713D01*
X11560Y8314D02*
Y8364D01*
X11586Y8390D01*
X11637D01*
X11662Y8364D01*
Y8314D01*
X11637Y8288D01*
X11611D01*
Y8390D01*
X11662Y8237D02*
X11586D01*
X11560Y8212D01*
Y8136D01*
X11662D01*
Y8085D02*
X11560D01*
X11611D01*
X11637Y8060D01*
X11662Y8034D01*
Y8009D01*
X11560Y7907D02*
Y7857D01*
X11586Y7831D01*
X11637D01*
X11662Y7857D01*
Y7907D01*
X11637Y7933D01*
X11586D01*
X11560Y7907D01*
X11317Y8542D02*
Y8466D01*
X11342Y8441D01*
X11367Y8466D01*
Y8517D01*
X11393Y8542D01*
X11418Y8517D01*
Y8441D01*
Y8390D02*
X11342D01*
X11317Y8364D01*
X11342Y8339D01*
X11317Y8314D01*
X11342Y8288D01*
X11418D01*
X11317Y8237D02*
Y8187D01*
Y8212D01*
X11418D01*
Y8237D01*
X11444Y8085D02*
X11418D01*
Y8110D01*
Y8060D01*
Y8085D01*
X11342D01*
X11317Y8060D01*
X11418Y7882D02*
Y7958D01*
X11393Y7983D01*
X11342D01*
X11317Y7958D01*
Y7882D01*
X11469Y7831D02*
X11317D01*
X11393D01*
X11418Y7806D01*
Y7755D01*
X11393Y7730D01*
X11317D01*
X11073Y8542D02*
X11174D01*
X11225Y8491D01*
X11174Y8441D01*
X11073D01*
X11149D01*
Y8542D01*
X11225Y8390D02*
X11073D01*
Y8314D01*
X11098Y8288D01*
X11200D01*
X11225Y8314D01*
Y8390D01*
X11200Y8136D02*
X11225Y8161D01*
Y8212D01*
X11200Y8237D01*
X11174D01*
X11149Y8212D01*
Y8161D01*
X11124Y8136D01*
X11098D01*
X11073Y8161D01*
Y8212D01*
X11098Y8237D01*
X11073Y8085D02*
Y8034D01*
Y8060D01*
X11225D01*
X11200Y8085D01*
X11073Y7857D02*
Y7958D01*
X11174Y7857D01*
X11200D01*
X11225Y7882D01*
Y7933D01*
X11200Y7958D01*
X11098Y7806D02*
X11073Y7780D01*
Y7730D01*
X11098Y7704D01*
X11200D01*
X11225Y7730D01*
Y7780D01*
X11200Y7806D01*
X11174D01*
X11149Y7780D01*
Y7704D01*
X11174Y7653D02*
X11073Y7552D01*
X11124Y7603D01*
X11174Y7552D01*
X11073Y7653D01*
D31*
X10132Y7380D02*
Y7690D01*
X10182Y7380D02*
Y7690D01*
X10132Y7380D02*
X10182D01*
X10132Y7690D02*
X10182D01*
X8953Y7130D02*
Y7680D01*
X9503Y7130D02*
Y7680D01*
X8953Y7130D02*
X9503D01*
X8953Y7680D02*
X9503D01*
X10188Y7815D02*
X10228D01*
X10188Y7745D02*
X10228D01*
X10190Y7232D02*
X10230D01*
X10190Y7303D02*
X10230D01*
X9840Y7532D02*
Y7572D01*
X9910Y7532D02*
Y7572D01*
X9930Y7745D02*
X9970D01*
X9930Y7815D02*
X9970D01*
X8440Y6905D02*
X8480D01*
X8440Y6835D02*
X8480D01*
X9690Y6875D02*
X9730D01*
X9690Y6945D02*
X9730D01*
X8910Y6562D02*
X8950D01*
X8910Y6632D02*
X8950D01*
X9778Y7940D02*
X9818D01*
X9778Y7870D02*
X9818D01*
X8032Y7140D02*
X8072D01*
X8032Y7210D02*
X8072D01*
X8470Y7428D02*
Y7468D01*
X8400Y7428D02*
Y7468D01*
X8005Y8318D02*
X8045D01*
X8005Y8388D02*
X8045D01*
X8722Y8205D02*
X8762D01*
X8722Y8135D02*
X8762D01*
X9188Y6653D02*
Y6693D01*
X9118Y6653D02*
Y6693D01*
X8155Y7982D02*
X8195D01*
X8155Y7912D02*
X8195D01*
X7935Y7862D02*
Y7903D01*
X8005Y7862D02*
Y7903D01*
X8482Y7215D02*
X8522D01*
X8482Y7145D02*
X8522D01*
X8647Y7588D02*
Y7628D01*
X8578Y7588D02*
Y7628D01*
X10410Y8585D02*
X10450D01*
X10410Y8515D02*
X10450D01*
X9925D02*
X9965D01*
X9925Y8445D02*
X9965D01*
X10255Y8460D02*
Y8500D01*
X10185Y8460D02*
Y8500D01*
X9905Y8260D02*
Y8300D01*
X9835Y8300D02*
X9835Y8260D01*
X9530Y8525D02*
X9570D01*
X9530Y8455D02*
X9570D01*
X8215Y8270D02*
Y8310D01*
X8285Y8270D02*
Y8310D01*
D47*
X9023Y7222D02*
X9015Y7230D01*
X8998D01*
X8990Y7222D01*
Y7213D01*
X8998Y7205D01*
X9015D01*
X9023Y7197D01*
Y7188D01*
X9015Y7180D01*
X8998D01*
X8990Y7188D01*
X9040Y7230D02*
X9073D01*
X9057D01*
Y7180D01*
X9090D02*
Y7230D01*
X9107Y7213D01*
X9123Y7230D01*
Y7180D01*
X9140Y7222D02*
X9148Y7230D01*
X9165D01*
X9173Y7222D01*
Y7213D01*
X9165Y7205D01*
X9157D01*
X9165D01*
X9173Y7197D01*
Y7188D01*
X9165Y7180D01*
X9148D01*
X9140Y7188D01*
X9223Y7180D02*
X9190D01*
X9223Y7213D01*
Y7222D01*
X9215Y7230D01*
X9198D01*
X9190Y7222D01*
X9240Y7230D02*
Y7180D01*
X9273D01*
X9290D02*
X9307D01*
X9298D01*
Y7230D01*
X9290Y7222D01*
X9365Y7230D02*
X9332D01*
Y7205D01*
X9348Y7213D01*
X9357D01*
X9365Y7205D01*
Y7188D01*
X9357Y7180D01*
X9340D01*
X9332Y7188D01*
X9382Y7180D02*
X9398D01*
X9390D01*
Y7230D01*
X9382Y7222D01*
X11268Y6602D02*
Y6553D01*
Y6577D01*
X11301D01*
Y6602D01*
Y6553D01*
X11351Y6594D02*
X11342Y6602D01*
X11326D01*
X11317Y6594D01*
Y6561D01*
X11326Y6553D01*
X11342D01*
X11351Y6561D01*
X11367Y6577D02*
X11401D01*
X11417Y6594D02*
X11426Y6602D01*
X11442D01*
X11451Y6594D01*
Y6561D01*
X11442Y6553D01*
X11426D01*
X11417Y6561D01*
Y6594D01*
X11501Y6602D02*
X11467D01*
Y6577D01*
X11484Y6586D01*
X11492D01*
X11501Y6577D01*
Y6561D01*
X11492Y6553D01*
X11476D01*
X11467Y6561D01*
X11070Y6600D02*
Y6558D01*
X11078Y6550D01*
X11095D01*
X11103Y6558D01*
Y6600D01*
X11120D02*
X11153D01*
Y6592D01*
X11120Y6558D01*
Y6550D01*
X10201Y7907D02*
X10192Y7915D01*
X10176D01*
X10168Y7907D01*
Y7873D01*
X10176Y7865D01*
X10192D01*
X10201Y7873D01*
X10217Y7865D02*
X10234D01*
X10226D01*
Y7915D01*
X10217Y7907D01*
X10214Y7131D02*
X10223Y7123D01*
X10239D01*
X10247Y7131D01*
Y7164D01*
X10239Y7172D01*
X10223D01*
X10214Y7164D01*
X10164Y7172D02*
X10198D01*
X10164Y7139D01*
Y7131D01*
X10173Y7123D01*
X10189D01*
X10198Y7131D01*
X9989Y7569D02*
X9997Y7578D01*
Y7594D01*
X9989Y7603D01*
X9956D01*
X9947Y7594D01*
Y7578D01*
X9956Y7569D01*
X9989Y7553D02*
X9997Y7544D01*
Y7528D01*
X9989Y7519D01*
X9981D01*
X9972Y7528D01*
Y7536D01*
Y7528D01*
X9964Y7519D01*
X9956D01*
X9947Y7528D01*
Y7544D01*
X9956Y7553D01*
X9986Y7914D02*
X9977Y7922D01*
X9961D01*
X9953Y7914D01*
Y7881D01*
X9961Y7872D01*
X9977D01*
X9986Y7881D01*
X10027Y7872D02*
Y7922D01*
X10002Y7897D01*
X10036D01*
X8428Y6789D02*
X8420Y6797D01*
X8403D01*
X8395Y6789D01*
Y6756D01*
X8403Y6747D01*
X8420D01*
X8428Y6756D01*
X8445Y6747D02*
X8462D01*
X8453D01*
Y6797D01*
X8445Y6789D01*
X8487D02*
X8495Y6797D01*
X8512D01*
X8520Y6789D01*
Y6756D01*
X8512Y6747D01*
X8495D01*
X8487Y6756D01*
Y6789D01*
X9691Y7047D02*
X9682Y7055D01*
X9666D01*
X9657Y7047D01*
Y7013D01*
X9666Y7005D01*
X9682D01*
X9691Y7013D01*
X9707Y7005D02*
X9724D01*
X9716D01*
Y7055D01*
X9707Y7047D01*
X9749Y7005D02*
X9766D01*
X9757D01*
Y7055D01*
X9749Y7047D01*
X8901Y6739D02*
X8892Y6747D01*
X8876D01*
X8868Y6739D01*
Y6706D01*
X8876Y6697D01*
X8892D01*
X8901Y6706D01*
X8917Y6697D02*
X8934D01*
X8926D01*
Y6747D01*
X8917Y6739D01*
X8992Y6697D02*
X8959D01*
X8992Y6731D01*
Y6739D01*
X8984Y6747D01*
X8967D01*
X8959Y6739D01*
X9791Y8044D02*
X9782Y8052D01*
X9766D01*
X9757Y8044D01*
Y8011D01*
X9766Y8003D01*
X9782D01*
X9791Y8011D01*
X9807Y8003D02*
X9824D01*
X9816D01*
Y8052D01*
X9807Y8044D01*
X9849D02*
X9857Y8052D01*
X9874D01*
X9882Y8044D01*
Y8036D01*
X9874Y8027D01*
X9866D01*
X9874D01*
X9882Y8019D01*
Y8011D01*
X9874Y8003D01*
X9857D01*
X9849Y8011D01*
X7848Y7141D02*
X7840Y7132D01*
Y7116D01*
X7848Y7107D01*
X7882D01*
X7890Y7116D01*
Y7132D01*
X7882Y7141D01*
X7890Y7191D02*
Y7157D01*
X7857Y7191D01*
X7848D01*
X7840Y7182D01*
Y7166D01*
X7848Y7157D01*
X7840Y7241D02*
X7848Y7224D01*
X7865Y7207D01*
X7882D01*
X7890Y7216D01*
Y7232D01*
X7882Y7241D01*
X7873D01*
X7865Y7232D01*
Y7207D01*
X8301Y7418D02*
X8293Y7410D01*
Y7393D01*
X8301Y7385D01*
X8334D01*
X8343Y7393D01*
Y7410D01*
X8334Y7418D01*
X8343Y7468D02*
Y7435D01*
X8309Y7468D01*
X8301D01*
X8293Y7460D01*
Y7443D01*
X8301Y7435D01*
X8293Y7485D02*
Y7518D01*
X8301D01*
X8334Y7485D01*
X8343D01*
X8003Y8482D02*
X7995Y8490D01*
X7978D01*
X7970Y8482D01*
Y8448D01*
X7978Y8440D01*
X7995D01*
X8003Y8448D01*
X8053Y8440D02*
X8020D01*
X8053Y8473D01*
Y8482D01*
X8045Y8490D01*
X8028D01*
X8020Y8482D01*
X8070D02*
X8078Y8490D01*
X8095D01*
X8103Y8482D01*
Y8473D01*
X8095Y8465D01*
X8103Y8457D01*
Y8448D01*
X8095Y8440D01*
X8078D01*
X8070Y8448D01*
Y8457D01*
X8078Y8465D01*
X8070Y8473D01*
Y8482D01*
X8078Y8465D02*
X8095D01*
X10140Y8260D02*
Y8210D01*
X10165D01*
X10173Y8218D01*
Y8252D01*
X10165Y8260D01*
X10140D01*
X10223Y8252D02*
X10215Y8260D01*
X10198D01*
X10190Y8252D01*
Y8218D01*
X10198Y8210D01*
X10215D01*
X10223Y8218D01*
Y8235D01*
X10207D01*
X10240Y8210D02*
Y8260D01*
X10273Y8210D01*
Y8260D01*
X10290D02*
Y8210D01*
X10315D01*
X10323Y8218D01*
Y8252D01*
X10315Y8260D01*
X10290D01*
X10340Y8202D02*
X10373D01*
X10423Y8260D02*
X10407D01*
X10415D01*
Y8218D01*
X10407Y8210D01*
X10398D01*
X10390Y8218D01*
X7838Y6930D02*
X7888D01*
X7863D01*
Y6963D01*
X7838D01*
X7888D01*
X7838Y6980D02*
X7888D01*
Y7013D01*
X7846Y7030D02*
X7838Y7038D01*
Y7055D01*
X7846Y7063D01*
X7854D01*
X7863Y7055D01*
Y7047D01*
Y7055D01*
X7871Y7063D01*
X7879D01*
X7888Y7055D01*
Y7038D01*
X7879Y7030D01*
X8710Y8238D02*
Y8287D01*
X8735D01*
X8743Y8279D01*
Y8262D01*
X8735Y8254D01*
X8710D01*
X8727D02*
X8743Y8238D01*
X8760Y8246D02*
X8768Y8238D01*
X8785D01*
X8793Y8246D01*
Y8279D01*
X8785Y8287D01*
X8768D01*
X8760Y8279D01*
Y8271D01*
X8768Y8262D01*
X8793D01*
X9288Y6610D02*
X9238D01*
Y6635D01*
X9246Y6643D01*
X9263D01*
X9271Y6635D01*
Y6610D01*
Y6627D02*
X9288Y6643D01*
Y6660D02*
Y6677D01*
Y6668D01*
X9238D01*
X9246Y6660D01*
Y6702D02*
X9238Y6710D01*
Y6727D01*
X9246Y6735D01*
X9279D01*
X9288Y6727D01*
Y6710D01*
X9279Y6702D01*
X9246D01*
X8130Y8040D02*
Y8090D01*
X8155D01*
X8163Y8082D01*
Y8065D01*
X8155Y8057D01*
X8130D01*
X8147D02*
X8163Y8040D01*
X8180D02*
X8197D01*
X8188D01*
Y8090D01*
X8180Y8082D01*
X8222Y8040D02*
X8238D01*
X8230D01*
Y8090D01*
X8222Y8082D01*
X7870Y7840D02*
X7820D01*
Y7865D01*
X7828Y7873D01*
X7845D01*
X7853Y7865D01*
Y7840D01*
Y7857D02*
X7870Y7873D01*
Y7890D02*
Y7907D01*
Y7898D01*
X7820D01*
X7828Y7890D01*
X7870Y7965D02*
Y7932D01*
X7837Y7965D01*
X7828D01*
X7820Y7957D01*
Y7940D01*
X7828Y7932D01*
X8438Y7257D02*
Y7307D01*
X8462D01*
X8471Y7299D01*
Y7282D01*
X8462Y7274D01*
X8438D01*
X8454D02*
X8471Y7257D01*
X8487D02*
X8504D01*
X8496D01*
Y7307D01*
X8487Y7299D01*
X8529D02*
X8537Y7307D01*
X8554D01*
X8562Y7299D01*
Y7291D01*
X8554Y7282D01*
X8546D01*
X8554D01*
X8562Y7274D01*
Y7266D01*
X8554Y7257D01*
X8537D01*
X8529Y7266D01*
X8532Y7597D02*
X8483D01*
Y7622D01*
X8491Y7631D01*
X8508D01*
X8516Y7622D01*
Y7597D01*
Y7614D02*
X8532Y7631D01*
Y7647D02*
Y7664D01*
Y7656D01*
X8483D01*
X8491Y7647D01*
X8483Y7722D02*
X8491Y7706D01*
X8508Y7689D01*
X8524D01*
X8532Y7697D01*
Y7714D01*
X8524Y7722D01*
X8516D01*
X8508Y7714D01*
Y7689D01*
X9990Y7355D02*
Y7313D01*
X9998Y7305D01*
X10015D01*
X10023Y7313D01*
Y7355D01*
X10040Y7305D02*
X10057D01*
X10048D01*
Y7355D01*
X10040Y7347D01*
X9595Y7800D02*
Y7758D01*
X9603Y7750D01*
X9620D01*
X9628Y7758D01*
Y7800D01*
X9645Y7792D02*
X9653Y7800D01*
X9670D01*
X9678Y7792D01*
Y7783D01*
X9670Y7775D01*
X9678Y7767D01*
Y7758D01*
X9670Y7750D01*
X9653D01*
X9645Y7758D01*
Y7767D01*
X9653Y7775D01*
X9645Y7783D01*
Y7792D01*
X9653Y7775D02*
X9670D01*
X7803Y7465D02*
Y7498D01*
X7811D01*
X7844Y7465D01*
X7853D01*
Y7498D01*
X7844Y7548D02*
X7811D01*
X7803Y7540D01*
Y7523D01*
X7811Y7515D01*
X7844D01*
X7853Y7523D01*
Y7540D01*
X7836Y7532D02*
X7853Y7548D01*
Y7540D02*
X7844Y7548D01*
X7853Y7565D02*
Y7582D01*
Y7573D01*
X7803D01*
X7811Y7565D01*
X10403Y8672D02*
X10395Y8680D01*
X10378D01*
X10370Y8672D01*
Y8638D01*
X10378Y8630D01*
X10395D01*
X10403Y8638D01*
X10453Y8630D02*
X10420D01*
X10453Y8663D01*
Y8672D01*
X10445Y8680D01*
X10428D01*
X10420Y8672D01*
X10470Y8638D02*
X10478Y8630D01*
X10495D01*
X10503Y8638D01*
Y8672D01*
X10495Y8680D01*
X10478D01*
X10470Y8672D01*
Y8663D01*
X10478Y8655D01*
X10503D01*
X9913Y8602D02*
X9905Y8610D01*
X9888D01*
X9880Y8602D01*
Y8568D01*
X9888Y8560D01*
X9905D01*
X9913Y8568D01*
X9930Y8602D02*
X9938Y8610D01*
X9955D01*
X9963Y8602D01*
Y8593D01*
X9955Y8585D01*
X9947D01*
X9955D01*
X9963Y8577D01*
Y8568D01*
X9955Y8560D01*
X9938D01*
X9930Y8568D01*
X9980Y8602D02*
X9988Y8610D01*
X10005D01*
X10013Y8602D01*
Y8568D01*
X10005Y8560D01*
X9988D01*
X9980Y8568D01*
Y8602D01*
X10147Y8422D02*
X10098D01*
Y8447D01*
X10106Y8456D01*
X10123D01*
X10131Y8447D01*
Y8422D01*
Y8439D02*
X10147Y8456D01*
Y8472D02*
Y8489D01*
Y8481D01*
X10098D01*
X10106Y8472D01*
X10147Y8539D02*
X10098D01*
X10123Y8514D01*
Y8547D01*
X9790Y8220D02*
X9740D01*
Y8245D01*
X9748Y8253D01*
X9765D01*
X9773Y8245D01*
Y8220D01*
Y8237D02*
X9790Y8253D01*
Y8270D02*
Y8287D01*
Y8278D01*
X9740D01*
X9748Y8270D01*
X9740Y8345D02*
Y8312D01*
X9765D01*
X9757Y8328D01*
Y8337D01*
X9765Y8345D01*
X9782D01*
X9790Y8337D01*
Y8320D01*
X9782Y8312D01*
X9500Y8580D02*
Y8630D01*
X9525D01*
X9533Y8622D01*
Y8605D01*
X9525Y8597D01*
X9500D01*
X9517D02*
X9533Y8580D01*
X9550D02*
X9567D01*
X9558D01*
Y8630D01*
X9550Y8622D01*
X9592Y8630D02*
X9625D01*
Y8622D01*
X9592Y8588D01*
Y8580D01*
X8340Y8365D02*
X8390D01*
Y8340D01*
X8382Y8332D01*
X8365D01*
X8357Y8340D01*
Y8365D01*
Y8348D02*
X8340Y8332D01*
Y8315D02*
Y8298D01*
Y8307D01*
X8390D01*
X8382Y8315D01*
Y8273D02*
X8390Y8265D01*
Y8248D01*
X8382Y8240D01*
X8373D01*
X8365Y8248D01*
X8357Y8240D01*
X8348D01*
X8340Y8248D01*
Y8265D01*
X8348Y8273D01*
X8357D01*
X8365Y8265D01*
X8373Y8273D01*
X8382D01*
X8365Y8265D02*
Y8248D01*
D48*
X7866Y7385D02*
G03*
X7866Y7385I-12J0D01*
G01*
X10290Y7715D02*
G03*
X10290Y7715I-12J0D01*
G01*
X8835Y7060D02*
G03*
X8835Y7060I-12J0D01*
G01*
D51*
X10860Y5970D02*
X12160D01*
Y6501D01*
X10860Y5970D02*
Y6501D01*
X12160D01*
X12090Y8660D02*
X12160D01*
Y8540D02*
Y8660D01*
Y8390D02*
X12160Y8420D01*
X12160Y8270D02*
X12160Y8240D01*
X12160Y8090D02*
Y8120D01*
Y7970D02*
X12160Y7940D01*
X12160Y7790D02*
X12160Y7820D01*
X12160Y7670D02*
X12160Y7640D01*
X12160Y7490D02*
Y7520D01*
Y7340D02*
X12160Y7370D01*
X12160Y7190D02*
Y7220D01*
Y7040D02*
X12160Y7070D01*
X12160Y6920D02*
X12160Y6890D01*
X12160Y6740D02*
Y6770D01*
Y6620D02*
X12160Y6501D01*
X10860D02*
X10860Y6620D01*
Y6740D02*
Y6770D01*
X10860Y6890D02*
X10860Y6920D01*
X10860Y7070D02*
X10860Y7040D01*
Y7190D02*
Y7220D01*
X10860Y7370D02*
X10860Y7340D01*
Y7490D02*
Y7520D01*
X10860Y7640D02*
X10860Y7670D01*
X10860Y7820D02*
X10860Y7790D01*
X10860Y7940D02*
X10860Y7970D01*
Y8090D02*
Y8120D01*
X10860Y8240D02*
X10860Y8270D01*
X10860Y8420D02*
X10860Y8390D01*
Y8540D02*
Y8660D01*
X10930D01*
X11040D02*
X11080D01*
X11190D02*
X11230D01*
X11340D02*
X11380D01*
X11490D02*
X11530D01*
X11640D02*
X11680D01*
X11790D02*
X11830D01*
X11940D02*
X11980D01*
D85*
X10951Y6564D02*
G03*
X10951Y6564I-13J0D01*
G01*
M02*
